<?xml version="1.0" standalone="no"?>
<!DOCTYPE svg PUBLIC "-//W3C//DTD SVG 1.1//EN" "http://www.w3.org/Graphics/SVG/1.1/DTD/svg11.dtd" >
<svg xmlns="http://www.w3.org/2000/svg" xmlns:xlink="http://www.w3.org/1999/xlink" version="1.1">
<metadata></metadata>
<defs>
<font id="gunmetalregular" horiz-adv-x="1134" >
<font-face units-per-em="2048" ascent="1638" descent="-410" />
<missing-glyph horiz-adv-x="1024" />
<glyph horiz-adv-x="0" />
<glyph horiz-adv-x="682" />
<glyph unicode=" "  horiz-adv-x="1024" />
<glyph unicode="&#x09;" horiz-adv-x="1024" />
<glyph unicode="&#xa0;" horiz-adv-x="1024" />
<glyph unicode="!" horiz-adv-x="414" d="M0 0v338h388v-338h-388zM6 1038v478h390v-484l-102 -618h-182zM48 46h292v246h-292v-246zM56 1038l94 -574h104l90 574v428h-288v-428zM72 72v52l240 136v-188h-240zM112 840l194 110l-74 -464h-64z" />
<glyph unicode="&#x22;" horiz-adv-x="708" d="M0 1498h302l-60 -610h-184zM54 1450l50 -512h94l48 512h-192zM110 1138l84 48l-20 -222h-48zM374 1498h302l-58 -610h-186zM428 1450l50 -512h94l48 512h-192zM486 1138l84 48l-20 -222h-48z" />
<glyph unicode="#" horiz-adv-x="1108" d="M0 460v240h232l26 128h-210v248h240l56 436h232l-58 -432h124l60 432h232l-56 -432h178v-244h-216l-18 -136h178v-236h-208l-62 -466h-238l64 468l-128 -2l-60 -464h-232l66 460h-202zM48 508h206l-62 -466h128l66 466h226l-60 -466h128l66 466h206v144h-188l34 230h206 v148h-188l58 432h-128l-62 -428h-226l62 428h-128l-66 -432h-218v-152h204l-38 -226h-226v-144zM78 538l160 92h60l6 34l80 46l-10 -80h284l40 268l206 118h78v-108h-210l-38 -276h192v-96h-202l-70 -464h-72l56 464h-274l-66 -468h-80l66 470h-206zM406 648l28 234h232 l-34 -234h-226zM462 700h128l18 136h-126z" />
<glyph unicode="$" horiz-adv-x="908" d="M0 224v292h388v-192h92v258l-232 18l-244 220v468l236 228h76v158h228v-158h64l250 -230v-294h-378v196h-92v-248l230 -24l248 -220v-472l-230 -224h-92v-150h-228v150h-86zM48 244l210 -200h110v-142h124v142h116l206 194v440l-212 190l-266 24v344h192v-196h282v228 l-216 200h-102v156h-124v-156h-100l-220 -208v-416l224 -196l256 -22v-348h-188v194h-292v-228zM70 254v198h246v-190h230v390l-206 16l270 156l180 -160v-420l-192 -176h-132v-150h-78v150h-124z" />
<glyph unicode="%" horiz-adv-x="1668" d="M0 706v654l168 158h276l166 -154v-654l-158 -158h-288zM56 724l122 -112h252l126 120v608l-132 130h-238l-130 -128v-618zM78 736v130l126 72v-210h192v288l134 78v-358l-110 -100h-234zM232 748v580h142v-580h-142zM272 794h60v488h-60v-488zM448 0l498 1522h196 l-476 -1522h-218zM522 56h104l448 1416h-94zM554 82l150 466l62 36l-160 -502h-52zM980 154v654l168 158h278l164 -154v-654l-158 -158h-286zM1036 172l124 -112h252l126 120v608l-134 130h-238l-130 -128v-618zM1058 184v130l126 72v-210h194v288l132 78v-358l-108 -100 h-236zM1212 196v580h144v-580h-144zM1254 242h60v488h-60v-488z" />
<glyph unicode="&#x26;" horiz-adv-x="1278" d="M0 226v404l176 126l-158 132v404l216 226h358l218 -234v-278l-136 -150l52 -88l36 66h350l-204 -348l310 -486h-418l-84 148l-82 -148h-414zM46 246l188 -194h376l106 194l116 -196h294l-270 432l172 306h-236l-58 -120l-120 188l144 164v248l-190 196h-312l-190 -200 v-352l190 -162l-210 -148v-356zM68 256v274l232 130v-408h228l104 180l-160 276h-92l216 126l140 -216l70 148h178l-158 -284l250 -410h-232l-130 222l-116 -210h-360zM326 278v402h134l144 -248l-92 -154h-186zM326 880v360h180v-360h-180zM376 930h80v264h-80v-264z M378 328h98l68 104l-120 202h-46v-306z" />
<glyph unicode="'" horiz-adv-x="316" d="M0 1498h302l-60 -610h-184zM54 1450l50 -512h94l48 512h-192zM110 1138l84 48l-20 -222h-48z" />
<glyph unicode="(" horiz-adv-x="562" d="M0 252v1106l286 268h250v-222h-248v-1186h248v-218h-250zM52 274l252 -228h184v124h-252v1282h256v124h-188l-252 -236v-1066zM76 286v144l134 76v-342zM232 144h230v-72h-152z" />
<glyph unicode=")" horiz-adv-x="562" d="M0 0v218h248v1186h-248v222h252l284 -268v-1106l-284 -252h-252zM46 1452h254v-1282h-250v-124h184l250 228v1066l-250 236h-188v-124zM76 72v72h228l-76 -72h-152zM326 164v428l134 76v-382z" />
<glyph unicode="*" horiz-adv-x="812" d="M2 1122v164h190l-132 132l114 114l136 -130v190h160v-192l136 132l112 -116l-128 -128h184v-166h-192l136 -136l-114 -114l-134 134v-186h-164v188l-130 -132l-116 116l130 130h-188zM54 1174h264l-184 -184l42 -42l182 182v-260h64v254l178 -180l44 44l-184 184h264v66 h-258l180 180l-42 40l-182 -182v270h-62v-264l-182 182l-44 -44l180 -180h-260v-66zM168 990l210 210h-114l28 16h84l-34 28l12 6l28 -26v44l14 8v-62l144 146l28 16l-160 -160h288v-18h-298l212 -212l-10 -6l-204 206v-292h-12v296l-208 -208z" />
<glyph unicode="+" d="M0 592v284h394v392h286v-392h400v-284h-400v-406h-286v406h-394zM48 642h396v-408h186v408h400v186h-400v390h-184v-390h-398v-186zM360 666l242 140h402v-140h-398v-408h-140v408h-106z" />
<glyph unicode="," horiz-adv-x="404" d="M0 0v334h386v-264l-198 -304l-158 104l94 130h-124zM50 48h172l-120 -164l72 -48l160 248v198h-284v-234zM74 74v16l234 134v-134l-142 -216l-28 18l132 182h-196z" />
<glyph unicode="-" d="M0 592v284h1080v-284h-540h-540zM48 642h491h491v186h-982v-186zM360 666l242 140h402v-140h-321h-323z" />
<glyph unicode="." horiz-adv-x="406" d="M0 0v334h388v-334h-388zM50 50h286v234h-286v-234zM76 76v36l234 134v-170h-234z" />
<glyph unicode="/" horiz-adv-x="1084" d="M0 138l782 1396l252 -122l-784 -1412zM68 160l154 -88l746 1314l-164 84zM102 170l306 544l222 130l-416 -738z" />
<glyph unicode="0" horiz-adv-x="906" d="M0 220v1072l242 228h376l246 -232v-1064l-224 -224h-410zM46 242l206 -196h366l194 192v1028l-210 200h-344l-212 -196v-1028zM68 252v262l240 140v-402h246v536l228 134v-682l-172 -170h-360zM336 274v964h192v-964h-192zM384 322h96v868h-96v-868z" />
<glyph unicode="1" horiz-adv-x="548" d="M0 1186v248l304 82h218v-1516h-388v1186h-134zM46 1236h136v-1190h294v1420h-164l-266 -66v-164zM206 72v534l240 136v-670h-240z" />
<glyph unicode="2" horiz-adv-x="898" d="M0 0v544l476 450v196h-102v-196h-360v294l224 228h380l238 -228v-424l-478 -442v-100h478v-322h-856zM52 42h756v236h-480v164l480 442v382l-214 200h-332l-200 -196v-224h264v192h198v-262l-472 -446v-488zM76 68v442l706 408v-24l-482 -440v-202h478v-184h-702z" />
<glyph unicode="3" horiz-adv-x="892" d="M0 220v302h370v-200h98v280h-188v324h188v266h-100v-186h-368v280l228 230h370l252 -226v-382l-182 -140l182 -144v-394l-230 -230h-400zM50 242l194 -194h350l202 202v350l-202 164l204 172v334l-210 196h-336l-202 -200v-214h268v182h196v-354h-182v-232h182v-376h-196 v198h-268v-228zM74 246v200h216v-194h246v420h-178v42l414 240l-218 -190l212 -172v-332l-186 -186h-332z" />
<glyph unicode="4" horiz-adv-x="1050" d="M0 288v290l514 934h346v-920h140v-300h-140v-292h-370v288h-490zM52 334h486v-296h278v296h136v210h-140v918h-270l-490 -898v-230zM78 362v160l174 100l-58 -100h368v274l224 130v-404h140v-160h-136v-300h-228v300h-484zM242 544l296 578v-578h-296zM322 588h170v332z " />
<glyph unicode="5" horiz-adv-x="900" d="M0 220v324h392v-220h80v310h-216l-242 216v666h754v-324h-380v-224h234l236 -222v-526l-230 -220h-398zM48 240l206 -194h354l200 198v480l-200 192h-272v324h382v226h-660v-584l226 -202h236v-404h-180v220h-292v-256zM72 242v230h242v-218h230v450h-164l258 148 l142 -140v-458l-190 -182h-334z" />
<glyph unicode="6" horiz-adv-x="906" d="M0 226v1060l240 236h374l246 -230v-288h-374v192h-104v-272h254l228 -206v-488l-232 -230h-392zM58 236l202 -188h350l198 196v456l-194 172h-278v368h196v-192h280v220l-212 202h-340l-202 -194v-1040zM82 240v288l230 132v-404h244v414h-228l292 168l166 -156l-2 -428 l-188 -178h-330zM336 278v366h196v-366h-196zM382 328h104v272h-104v-272z" />
<glyph unicode="7" horiz-adv-x="870" d="M0 0l462 1194h-112v-142h-344v464h824v-310l-420 -1206h-410zM56 1100h242v140h236l-454 -1194h288l406 1160v260h-718v-366zM114 72h236l266 770l-266 -156z" />
<glyph unicode="8" horiz-adv-x="902" d="M0 220v424l164 136l-136 128v380l214 230l348 -2l242 -236v-368l-146 -130l174 -142v-416l-232 -224h-392zM46 244l208 -192h356l198 196v368l-202 166l174 154v332l-208 200h-306l-188 -200v-338l160 -158l-192 -154v-374zM68 246v280l238 134v-400h244v422h-210 l318 184l-92 -80l216 -186v-350l-180 -174h-338zM332 280v374h194v-374h-194zM332 884v356h194v-356h-194zM380 324h98v284h-98v-284zM380 930h98v266h-98v-266z" />
<glyph unicode="9" horiz-adv-x="904" d="M0 776v514l224 224h394l244 -232v-1052l-242 -230h-390l-226 224v294h370v-196h100v262h-258zM46 244l210 -198h348l204 192v1024l-208 206h-348l-202 -202v-466l188 -168h286v-360h-196v196h-282v-224zM68 254v192h234v-196h244v408h-250l484 278v-692l-182 -168h-338z M328 860v378h192v-378h-192zM374 906h100v286h-100v-286z" />
<glyph unicode=":" horiz-adv-x="406" d="M0 0v330h388v-330h-388zM0 744v330h388v-330h-388zM48 50h288v232h-288v-232zM48 794h288v232h-288v-232zM74 78v20l236 134v-154h-236zM74 816v20l236 136v-156h-236z" />
<glyph unicode=";" horiz-adv-x="406" d="M0 0v330h388v-262l-202 -304l-156 106l92 130h-122zM0 744v330h388v-330h-388zM48 50h176l-124 -166l70 -48l166 242v204h-288v-232zM48 794h288v232h-288v-232zM74 78v20l236 134v-154l-148 -220l-34 22l138 198h-192zM74 816v20l236 136v-156h-236z" />
<glyph unicode="=" horiz-adv-x="1140" d="M0 392v284h1086v-284h-1086zM0 790v288h1086v-288h-1086zM50 440h986v186h-986v-186zM52 840h984v188h-984v-188zM310 864l244 140h456v-140h-700zM484 464l238 138h288v-138h-526z" />
<glyph unicode="?" horiz-adv-x="868" d="M0 930v360l234 228h344l250 -228v-384l-222 -222v-266h-388v328l226 208v242h-68v-266h-376zM48 972h276v270h168v-298l-226 -218v-262h296v252l216 208v344l-216 202h-308l-206 -198v-300zM218 0v336h388v-336h-388zM268 48h290v238h-290v-238zM290 488v226l192 184 l272 158v-122l-218 -206v-240h-246zM294 74v8l240 136v-144h-240z" />
<glyph unicode="A" horiz-adv-x="1024" d="M0 0l212 1520h534l230 -1520h-392l-24 276h-148l-32 -276h-380zM56 50h278l28 272h248l24 -272h282l-212 1424h-450zM84 74h226l28 272h296l20 -272h230l-126 848l-152 -88l32 -332h-304l16 186l-196 -114zM384 548l56 660h78l66 -660h-200zM440 598h96l-58 472z" />
<glyph unicode="B" horiz-adv-x="908" d="M0 0v1514h640l198 -196v-416l-146 -128l174 -124v-418l-232 -232h-634zM48 48h562l208 210v358l-204 156l172 154v374l-166 166h-572v-1418zM72 80v448l222 128v-424h274v464h-206l416 240l-210 -164l224 -170v-336l-186 -186h-534zM342 276v374h182v-374h-182zM342 878 v360h182v-360h-182zM390 326h86v280h-86v-280zM390 926h86v264h-86v-264z" />
<glyph unicode="C" horiz-adv-x="904" d="M0 218v1068l242 238h378l242 -240v-382h-378v288h-100v-868h100v354h378v-456l-236 -220h-376zM48 248l226 -198h338l200 188v390h-280v-356h-194v966h194v-288h278v320l-208 196h-342l-212 -208v-1010zM72 256v256l242 140v-396h246v350h228v-364l-180 -164h-332z" />
<glyph unicode="D" horiz-adv-x="904" d="M0 0v1518h620l242 -228v-1062l-228 -228h-634zM46 48h564l204 206v1012l-218 202h-550v-1420zM68 76v434l238 136v-392h244l-2 534l240 138v-666l-194 -184h-526zM334 276v966h188v-966h-188zM384 328h90v864h-90v-864z" />
<glyph unicode="E" horiz-adv-x="714" d="M0 0v1518h676v-322h-286v-234h230v-322h-230v-318h290v-322h-680zM46 46h584v234h-292v406h236v230h-236v318h286v238h-578v-1426zM68 72v438l244 140v-392h292v-186h-536zM418 712l132 74v-74h-132z" />
<glyph unicode="F" horiz-adv-x="738" d="M0 0v1514h704v-322h-314v-230h254v-318h-258v-644h-386zM52 42h282v646h266v232h-258v318h316v230h-606v-1426zM76 68v444l228 130v-574h-228zM432 720l138 80v-80h-138z" />
<glyph unicode="G" horiz-adv-x="926" d="M0 220v1066l234 224h400l244 -224v-362h-386v268h-108v-870h108v164h-84v328h474v-590l-238 -224h-400zM46 252l218 -202h356l210 194v522h-370v-234h80v-256h-206v962h206v-272h292v300l-222 202h-352l-212 -202v-1014zM68 264v248l240 138v-392h256v300h-78v186h314 v-498l-192 -170h-338z" />
<glyph unicode="H" horiz-adv-x="902" d="M0 0v1510h386v-594h92v590h382v-1506h-378v590h-96v-590h-386zM48 42h286v598h192v-598h286v1422h-286v-598h-192v598h-286v-1422zM72 68v444l236 136v-580h-236zM336 666l450 256v-854h-234v598h-216z" />
<glyph unicode="I" horiz-adv-x="404" d="M0 0v1514h386v-1514h-386zM48 48h294v1418h-294v-1418zM72 74v436l244 142v-578h-244z" />
<glyph unicode="J" horiz-adv-x="852" d="M0 230v404h356v-306h70v1192h386v-1298l-236 -222h-348zM54 242l194 -192h306l208 192v1230h-286v-1192h-164v306h-258v-344zM78 254v258l90 54h116v-308h216v506l232 134v-654l-190 -170h-282zM280 258v306v-306z" />
<glyph unicode="K" horiz-adv-x="1062" d="M0 0v1504h390v-502l182 502h402l-300 -706l338 -798h-420l-206 502v-502h-386zM48 38h290v566h64l234 -566h308l-328 756l280 662h-294l-192 -554h-68v554h-294v-1418zM72 58v454l522 302l-6 -22l316 -730h-254l-230 566h-116v-570h-232z" />
<glyph unicode="L" horiz-adv-x="728" d="M0 0v1518h392v-1192h302v-326h-694zM50 52h590v226h-298v1196h-292v-1422zM74 78v434l240 138v-396h298v-176h-538z" />
<glyph unicode="M" horiz-adv-x="1158" d="M0 0v1518h442l112 -670l104 672h446v-1520h-356v726l-112 -726h-170l-114 724v-724h-352zM48 50h254v930h68l138 -926h92l132 926h62v-930h262v1420h-356l-108 -710h-76l-122 706h-346v-1416zM72 76v436l204 118v-554h-204zM434 722l52 36l4 -18h126l10 90l62 40 l-114 -794h-42zM818 72v870l212 124v-994h-212z" />
<glyph unicode="N" horiz-adv-x="914" d="M0 0v1514h324l182 -552v552h366v-1514h-324l-182 566v-566h-366zM46 46h272v646h62l208 -650h234v1430h-268v-706h-44l-224 702h-240v-1422zM68 72v440l222 128v-568h-222zM402 704l80 46l12 -14h84v70l214 130v-870h-188z" />
<glyph unicode="O" horiz-adv-x="908" d="M0 226v1064l242 228h374l250 -224v-1068l-232 -226h-392zM52 250l204 -198h360l200 198v1022l-212 198h-348l-204 -198v-1022zM74 262v248l242 140v-392h238l-2 528l240 140v-668l-182 -176h-352zM342 280v962h186v-962h-186zM390 328h90v868h-90v-868z" />
<glyph unicode="P" horiz-adv-x="870" d="M0 0v1514h590l240 -232v-570l-238 -214h-210v-498h-382zM44 46h290v496h228l216 192v536l-212 196l-522 4v-1424zM68 72v438l420 244h42v24l224 130v-166l-204 -172h-240v-498h-242zM334 774v460h172v-460h-172zM382 824h76v366h-76v-366z" />
<glyph unicode="Q" horiz-adv-x="916" d="M0 218v1064l240 232h394l240 -224v-976l-112 -110h112v-204h-636zM44 248l214 -204h576v114h-200l196 180v930l-214 194h-358l-214 -196v-1018zM66 262v252l250 146v-400h246v530l248 144v-588l-238 -208h238v-72h-544zM340 276v962h200v-962h-200zM388 322h104v868h-104 v-868z" />
<glyph unicode="R" horiz-adv-x="894" d="M0 0v1512l610 2l242 -228v-408l-148 -124l148 -142v-612h-376v592h-90v-592h-386zM44 44h294v586h190v-586h276v554l-180 148l176 152v370l-208 198h-548v-1422zM68 68v458l708 408v-26l-188 -158l186 -164v-518h-224v584h-238v-584h-244zM338 864v374h186v-374h-186z M386 910h90v280h-90v-280z" />
<glyph unicode="S" horiz-adv-x="906" d="M0 224v292h388v-194h92v260l-234 16l-244 222v468l238 228h368l250 -232v-292h-378v196h-92v-248l230 -24l246 -220v-472l-230 -224h-404zM48 244l208 -200h352l204 192v442l-212 190l-264 24v344h192v-196h282v228l-216 200h-326l-220 -208v-416l222 -198l258 -20v-348 h-188v194h-292v-228zM68 254v196h248v-190h230v390l-206 18l270 156l178 -160v-420l-192 -176h-332z" />
<glyph unicode="T" horiz-adv-x="808" d="M0 1192v320l770 4v-328h-196v-1188h-382v1192h-192zM48 1238h192v-1194h288v1194h186v230h-666v-230zM262 634l242 144v-706h-240z" />
<glyph unicode="U" horiz-adv-x="916" d="M0 218v1302h386v-1194h94v1194h394v-1284l-236 -236h-408zM48 246l204 -190h366l200 194v1222h-290v-1190h-194v1190h-286v-1226zM64 262v250l246 140v-392h238v530l244 142v-670l-182 -180h-352z" />
<glyph unicode="V" horiz-adv-x="984" d="M0 1518h388l86 -960l76 960h388l-180 -1518h-558zM66 1468l184 -1416h466l166 1416h-288l-82 -1114h-72l-98 1114h-276zM202 606l180 104l28 -378h124l38 486l222 128l-104 -868h-418z" />
<glyph unicode="W" horiz-adv-x="1288" d="M0 1514h374l80 -570l68 566h184l66 -548l86 552h370l-260 -1514h-290l-66 576l-62 -576h-290zM62 1464l240 -1418h200l72 628h76l72 -626h202l242 1420h-266l-132 -878l-104 878h-96l-108 -884l-132 880h-266zM230 620l184 104l22 -134h50l26 194l192 110l40 -304h50 l62 392l222 128l-180 -1034h-152l-76 624h-122l-72 -624h-156z" />
<glyph unicode="X" horiz-adv-x="1068" d="M0 0l288 782l-274 734h394l98 -340l86 338h400l-262 -722l288 -788h-396l-114 368l-114 -372h-394zM72 48h284l150 484l154 -484h288l-270 746l246 674h-290l-128 -486l-136 490h-290l262 -684zM108 76h228l170 538l172 -538h232l-260 722l30 82l-352 -202z" />
<glyph unicode="Y" horiz-adv-x="1038" d="M0 1514h398l104 -442l96 442h392l-298 -878v-636h-388v624zM70 1468l282 -822v-598h292v602l276 818h-280l-138 -610l-152 610h-280zM376 76v436l240 140v-576h-240z" />
<glyph unicode="Z" horiz-adv-x="976" d="M0 0v284l472 908h-472v324h930v-284l-468 -910h462v-322h-924zM46 46h828v232h-492l500 972v216h-834v-228h502l-504 -972v-220zM72 72v194l196 374l388 224l-314 -610h506v-182h-776z" />
<glyph unicode="\" horiz-adv-x="1092" d="M0 1400l252 132l788 -1398l-254 -134zM72 1384l160 82l736 -1314l-154 -90zM420 816l402 -716l110 62l-398 716z" />
<glyph unicode="^" horiz-adv-x="1102" d="M0 684l382 808h278l390 -810l-262 -118l-262 552l-268 -550zM68 710l164 -76l292 592l290 -594l168 76l-354 736h-214zM102 724l86 180l206 120l-174 -354zM596 1140l118 68l230 -486l-120 -52z" />
<glyph unicode="_" horiz-adv-x="2200" d="M4 -168h2092v-244h-2092v244zM50 -218v-146h1996v146h-1996zM604 -340l176 102h1242v-102h-1418z" />
<glyph unicode="&#xad;" d="M0 592v284h1080v-284h-540h-540zM48 642h491h491v186h-982v-186zM360 666l242 140h402v-140h-321h-323z" />
<glyph unicode="&#xe0;" horiz-adv-x="1274" d="M16 10v454h202q26 0 48 -8t40 -21t33 -32t25 -41q16 -34 22 -63t5 -58t-8 -57t-19 -60q-16 -52 -55 -82t-93 -32h-50h-50h-49h-51zM78 62q32 0 63 -4t58 -2t50 13t41 41q20 30 32 68t11 77t-16 75t-45 58q-22 16 -45 21t-47 6t-49 -1t-53 -2v-350zM438 232q0 48 13 89 t43 79q20 24 38 38t39 22t44 11t53 3q26 -2 50 -7t44 -16t37 -29t29 -42q6 -12 11 -27t5 -27h-28h-28q-6 18 -10 31t-11 23t-19 16t-36 14q-18 6 -36 10t-37 2t-36 -9t-35 -21q-16 -10 -28 -26t-21 -36t-15 -41t-8 -44t0 -45t8 -43t17 -39t27 -30q22 -22 49 -33t56 -10 t56 12t49 33q12 12 19 24t12 24t6 27t1 33h-140v52h196v-240h-38l-16 58q-8 -10 -18 -20t-20 -18t-21 -14t-27 -8q-16 -4 -30 -6t-28 -2t-29 1t-31 3q-38 6 -66 23t-50 49q-20 36 -30 75t-10 81zM922 10v454h60v-400h232v-54h-292z" />
<glyph unicode="&#x2000;" horiz-adv-x="837" />
<glyph unicode="&#x2001;" horiz-adv-x="1674" />
<glyph unicode="&#x2002;" horiz-adv-x="837" />
<glyph unicode="&#x2003;" horiz-adv-x="1674" />
<glyph unicode="&#x2004;" horiz-adv-x="558" />
<glyph unicode="&#x2005;" horiz-adv-x="418" />
<glyph unicode="&#x2006;" horiz-adv-x="279" />
<glyph unicode="&#x2007;" horiz-adv-x="279" />
<glyph unicode="&#x2008;" horiz-adv-x="209" />
<glyph unicode="&#x2009;" horiz-adv-x="334" />
<glyph unicode="&#x200a;" horiz-adv-x="93" />
<glyph unicode="&#x2010;" d="M0 592v284h1080v-284h-540h-540zM48 642h491h491v186h-982v-186zM360 666l242 140h402v-140h-321h-323z" />
<glyph unicode="&#x2011;" d="M0 592v284h1080v-284h-540h-540zM48 642h491h491v186h-982v-186zM360 666l242 140h402v-140h-321h-323z" />
<glyph unicode="&#x2012;" d="M0 592v284h1080v-284h-540h-540zM48 642h491h491v186h-982v-186zM360 666l242 140h402v-140h-321h-323z" />
<glyph unicode="&#x2013;" horiz-adv-x="1078" d="M0 592v284h1024v-284h-512h-512zM46 642h465h466v186h-931v-186zM341 666l230 140h381v-140h-304.5h-306.5z" />
<glyph unicode="&#x2014;" horiz-adv-x="2102" d="M0 592v284h2048v-284h-1024h-1024zM91 642h931.5h930.5v186h-1862v-186zM683 666l459 140h762v-140h-609h-612z" />
<glyph unicode="&#x2018;" horiz-adv-x="396" d="M0 966v254l208 312l154 -108l-94 -124h110v-334h-378zM50 1018h278v232h-160l122 162l-70 50l-170 -256v-188zM74 1040v114l130 74h98v-188h-228z" />
<glyph unicode="&#x2019;" horiz-adv-x="396" d="M0 1198v334h378v-252l-208 -314l-156 110l96 122h-110zM50 1248h158l-120 -160l70 -50l168 256v188h-276v-234zM70 1276l230 134v-112l-148 -224l-30 20l140 182h-192z" />
<glyph unicode="&#x201c;" horiz-adv-x="858" d="M0 966v254l208 312l154 -108l-94 -124h110v-334h-378zM50 1018h278v232h-160l122 162l-70 50l-170 -256v-188zM76 1042v72l194 112h32v-184h-226zM442 966v254l206 312l156 -108l-96 -124h110v-334h-376zM492 1018h278v232h-160l122 162l-72 50l-168 -256v-188zM518 1042 v72l194 112h32v-184h-226z" />
<glyph unicode="&#x201d;" horiz-adv-x="858" d="M0 1198v334h378v-252l-208 -314l-156 110l96 122h-110zM50 1248h158l-122 -160l72 -50l168 256v188h-276v-234zM74 1274v14l228 132v-120l-152 -226l-28 18l138 182h-186zM442 1198v334h376v-252l-206 -314l-156 110l94 122h-108zM490 1248h160l-122 -160l72 -50l168 256 v188h-278v-234zM514 1274v14l226 132v-120l-152 -226l-26 18l136 182h-184z" />
<glyph unicode="&#x2022;" horiz-adv-x="408" d="M0 566v334h390v-334h-390zM50 616h290v234h-290v-234zM74 642v30l240 138v-168h-240z" />
<glyph unicode="&#x202f;" horiz-adv-x="334" />
<glyph unicode="&#x205f;" horiz-adv-x="418" />
<glyph unicode="&#x25fc;" horiz-adv-x="1520" d="M0 0v1520h1520v-1520h-1520z" />
</font>
</defs>
</svg>
