<?xml version="1.0"?><svg width="900.918" height="600.818" xmlns="http://www.w3.org/2000/svg">

 <g>
  <title>Layer 1</title>
  <g id="svg_2">
   <path id="svg_3" d="m8,277.680023c7.400665,5.305206 16.424864,-0.163391 24.102959,1.583191c6.972801,1.583252 12.826126,9.528351 19.847767,11.03894c20.207256,4.335663 40.297283,-1.096649 59.990711,-9.423065c33.062683,-13.983826 71.259735,-51.886581 96.249664,-94.684235c11.77504,-20.167862 33.56871,-33.930191 49.354675,-39.409729c13.482605,-19.724823 30.364624,-30.295319 46.019745,-42.387314c34.715485,-26.823875 70.624786,-51.272945 106.955994,-70.812588c32.398407,-17.422626 62.763031,-24.37643 96.181305,-24.133139c17.095032,0.127094 33.902771,-10.810165 52.357605,-9.310468c20.504211,1.666734 45.39447,0.831551 64.527161,14.390556c14.187866,10.058499 29.573364,12.53863 44.157776,19.957229c11.224182,5.70829 26.304871,10.984467 35.661194,20.984871c12.173584,13.017944 26.77179,15.283836 38.996094,28.120232c23.706421,24.877533 -7.810852,20.708893 -8.443909,26.918289c5.331726,15.610649 18.685303,12.952583 24.937134,26.816628c11.806274,26.177505 -19.328003,8.609634 -17.849121,7.883392c-6.451111,1.122055 -3.12793,14.448654 -1.219055,19.710297c5.171448,14.277985 19.513672,5.021988 26.744324,1.445251c18.087463,-8.947357 32.619202,9.811554 50.573792,12.35704c7.63324,1.082108 15.674683,0.352249 23.186707,3.616714c14.353882,6.242081 1.525879,19.841034 8.471313,33.839432c6.941528,5.170853 17.868591,6.717743 22.573181,19.056656c4.380249,11.489212 8.889404,8.852936 14.631348,20.062546c7.580444,14.81543 7.004089,39.816437 -6.128784,40.829529c-15.217468,1.176514 -1.758423,-16.631012 -11.220215,-24.750458c-7.848022,-1.586853 -18.181213,0.301392 -20.934021,16.881592c-5.230103,31.486389 24.415588,16.104492 28.018188,44.631439c5.544617,43.854309 -28.975525,-7.404083 -29.774536,22.07782c12.974609,8.177551 8.824829,32.270752 -2.463623,37.993561c-5.997986,3.039368 -11.988037,-0.769836 -15.969666,-9.611847c-5.370789,7.90155 -12.880798,10.599518 -19.53717,10.770233c-7.461243,0.181519 -10.864563,0.838776 -11.987915,-11.623596c-0.763916,-8.460754 -15.276123,-3.409698 -19.408264,-6.601563c-15.377625,-11.852356 10.092896,-19.063934 9.813538,-27.237823c-6.654358,-1.423462 -29.030212,-0.403107 -18.431335,-23.653839c-7.230774,1.412537 -13.949524,9.484772 -21.268127,3.151917c1.076538,15.966492 -6.873108,22.372009 -13.877258,24.946533c-13.314514,4.891266 -9.975647,-21.017548 -19.644531,-15.850342c-9.016357,4.815033 -18.42157,12.705719 -27.326599,0.951416c-15.776245,-20.806946 9.211731,-11.757904 6.963074,-25.814392c-6.015442,0.904144 -11.829712,-0.370392 -16.665222,-7.483948c-6.445251,-9.48114 2.233093,-14.622986 -0.347778,-17.753082c-10.559814,1.862823 -19.99231,11.670746 -30.436829,14.365143c-13.300964,3.427826 -17.401733,-4.027039 -29.794128,10.468781c-8.850342,10.356293 -14.748596,22.746033 -13.5979,43.186218c1.424255,25.200714 -11.874573,36.236053 -10.860657,61.09906c2.957947,72.787964 54.526184,157.163116 88.940857,176.837189c-178.182587,0 -356.363129,0 -534.543716,0c4.86084,-3.438721 0.255936,-16.217102 5.671631,-18.9151c-1.914642,-3.620361 -4.278641,-4.680664 -7.091965,-3.162781c8.797562,-7.276978 18.233994,28.494263 18.433273,-3.151917c6.707092,-4.720581 11.435074,-1.561401 14.182007,9.463013c12.322067,-19.812012 -33.138885,-16.115417 -36.15152,-15.50531c-9.016373,1.841003 -19.287041,0.417542 -27.656754,-6.576233c-0.705292,-23.824463 21.680359,-26.489807 18.437195,-9.462891c17.354828,-11.442017 -21.967552,-36.22525 -18.437195,-12.611328c-2.115868,-46.476105 -39.318474,-8.733093 -49.622356,-6.314697c-10.214016,2.382141 -18.724388,-2.63269 -28.358143,-7.890686c1.529755,-25.977783 -11.046295,-9.720856 -11.343258,-14.187225c2.340546,-7.578339 11.063877,-0.8461 12.761654,-9.462952c-2.846558,-7.226135 -11.415546,-12.589478 -15.600399,-6.314697c0.068378,0.501099 18.169529,-14.060089 15.600399,14.205353c12.820263,11.61261 5.175385,-23.686462 5.671627,-26.816589c14.959579,-8.257416 17.493549,3.130127 19.847775,22.074219c10.180794,3.471436 6.423805,-14.986053 8.506462,-25.229767c12.90818,-2.062592 7.558914,9.684448 13.808853,-11.456512c3.612404,-12.208221 23.229637,-0.541077 17.386078,14.612061c13.789307,-13.047058 -12.435371,-19.321808 -11.343254,-33.120483c1.586411,1.837433 2.530067,4.470062 2.834839,7.890656c5.341454,-0.065308 0.472794,-11.158722 7.090027,-9.462921c-8.221222,20.857758 25.032928,31.07962 17.012932,52.046387c7.068535,-1.267334 6.271423,-13.228638 2.836792,-20.505585c3.424858,-6.783112 18.87677,-8.635071 21.268112,1.583221c1.514145,5.900757 -5.323868,2.476532 -4.253235,7.883453c5.911942,13.217651 7.486618,-12.538696 11.343262,-14.198181c-1.772018,-4.121429 -4.134064,-5.693726 -7.090027,-4.731445c2.993088,-2.342163 5.827942,-1.812012 8.50647,1.583191c-1.768112,5.305206 -2.713699,11.100677 -2.834839,17.346436c5.970551,-0.11264 9.510681,-8.384583 13.636917,2.687042c4.520889,12.121124 5.064011,24.024292 -5.126541,24.118622c0.787354,18.261444 13.765854,-4.949371 15.596497,-6.296539c-6.261642,-15.222107 -7.810944,-37.383484 4.251266,-39.43512c0.216873,4.005219 -0.253983,7.683624 -1.416428,11.046204c7.672226,4.164978 9.508713,-18.973175 19.578156,-15.472717c11.198669,3.889038 3.909378,14.463226 8.776062,20.204224c6.326141,-0.780762 8.332596,-11.823303 4.120392,-19.387146c-6.455063,-11.594543 -17.304031,-13.69339 -25.747971,-14.819031c-12.312302,-1.652222 -13.105515,3.032074 -16.653458,-19.430756c-2.188156,-2.665283 -16.946503,-6.147644 -12.761658,-15.763123c6.523438,-2.767029 10.317551,2.236816 15.596497,7.890625c5.501648,-8.035889 -6.036987,-10.733887 -1.420349,-18.925964c-8.399017,4.894928 -17.15361,-2.400208 -25.519394,1.575958c9.270355,-4.858551 28.700043,-17.132111 26.939743,-31.544434c3.204086,2.164215 6.511734,3.213623 9.92485,3.148224c-1.773972,1.706696 -3.663208,2.236877 -5.669678,1.590515c-2.516373,14.771851 8.76828,13.268494 12.757751,12.614899c-7.451462,3.772827 6.199127,15.320129 12.761658,9.462982c4.962418,21.0466 -5.943192,9.909576 -11.343262,14.187195c10.296066,26.181152 27.781815,-22.796844 39.701401,-3.151947c1.51413,9.335907 -6.875107,5.475922 -8.506454,4.727875c1.574692,9.840607 16.66713,4.150482 15.592575,-4.727875c8.66275,18.025452 -1.46138,30.193695 -11.341309,26.805725c0.152405,9.52475 12.132553,6.757721 14.879486,6.884827c14.983032,0.671783 6.744217,24.492645 -3.538177,19.931824c-2.166672,15.574341 25.783157,-14.317932 25.5233,-14.201752c-6.603546,20.672607 -27.605972,53.876526 -41.117844,39.427887c1.57666,12.124664 15.942307,8.057709 19.849731,4.738739c-5.417648,14.920715 9.827179,18.345001 -5.69899,24.82309c-4.22197,1.761169 -14.879471,3.856323 -15.309296,0.283264c1.803284,15.00061 26.277451,9.862427 32.351547,9.590027c8.828812,17.665955 -12.783157,24.670593 -18.429382,18.926025c-6.482422,9.640869 16.030228,8.2901 14.756409,8.791199c7.715195,-2.999451 13.427841,-13.083374 17.854965,-24.568909c-4.024658,-2.345764 -6.859467,-7.073608 -8.506454,-14.187195c3.62999,-3.671204 7.412399,-4.194122 11.343246,-1.579651c1.723175,7.135376 -3.917206,6.016968 -2.834839,12.61853c9.846741,0.050903 14.195679,-23.642944 1.41449,-23.657471c8.340424,-6.637817 41.758667,-8.438934 28.360107,20.494751c6.259674,2.262146 19.302704,-20.970398 9.926788,-25.229858c1.721252,-2.342072 36.11441,-20.810547 25.523346,-29.964874c8.061005,-5.207184 5.655945,14.670135 0,15.774109c12.417786,17.320892 0.800995,8.722137 1.41449,23.65741c7.457306,2.599976 11.507355,-10.497894 15.596497,-18.929565c-4.184875,15.686829 2.143219,28.23642 -9.922943,34.69632c8.639343,6.36554 14.543457,-14.982422 21.719421,2.65448c4.534576,11.144226 -4.030487,23.257996 -10.378082,24.154846c12.583832,14.230896 17.978027,-19.038513 29.774567,-18.925903c6.841919,0.069031 11.186951,6.852112 14.353912,17.397217c6.060425,20.17511 -1.967377,3.674805 -3.012634,18.882385c10.954468,9.081665 12.693268,-18.991333 7.107635,-29.986633c-3.090759,-4.76062 -5.45871,-10.541504 -7.107635,-17.331909c-2.912964,1.23468 -5.853333,2.029907 -8.822937,2.382141c2.410889,2.193237 10.80011,-12.720215 10.243317,-18.145294c7.386963,-0.559204 27.881439,5.268921 19.847778,28.378021c8.615875,-2.287598 9.348511,-22.306549 2.670746,-28.922699c-18.755707,-18.570129 8.402893,-17.179352 1.584412,-2.610809c11.274872,0.89328 -0.683777,-17.589783 9.346558,-21.162842c4.427124,-1.387177 8.807343,-0.991302 13.140686,1.19101c8.357971,4.542664 0.433746,16.289673 5.870911,19.971832c8.692078,-8.994629 0.23056,-21.384399 -4.548248,-26.246582c-10.550049,-10.723022 -23.268707,0.207001 -33.736725,7.316956c9.655243,-2.42572 13.742432,-22.357483 0,-22.074219c13.738525,-3.151947 7.961395,-20.501953 -1.420319,-25.244354c-10.821625,-1.151093 -15.533997,15.015167 -26.750275,12.088379c-7.21701,-1.87735 -26.877228,-7.494843 -29.348694,-19.811951c-2.113892,-10.516052 -0.328186,-21.006653 -0.615356,-31.704285c2.672668,1.554199 11.903931,-6.895691 11.612885,-3.249939c-0.726837,2.654419 -1.762268,4.793243 -3.104492,6.409149c-0.171936,0.050812 11.534698,2.182343 10.100708,-1.281891c-2.264374,-1.143799 -2.795746,-2.817841 -1.594238,-5.032867c6.011597,-2.701599 1.721252,3.809174 5.673553,4.742432c0.847961,6.347351 -5.937317,4.335632 -7.089996,7.876129c2.16275,8.943665 11.993866,4.506317 11.343262,-4.724274c3.403351,9.597351 14.318726,22.07428 -1.416473,22.07428c7.197479,8.268311 10.970123,2.302185 16.016571,-7.295166c7.004059,-13.341125 24.548401,-5.555786 15.1745,5.719208c27.836487,-0.243286 -6.623077,-38.186035 21.268097,-37.85556c-2.201843,6.859375 -14.600098,2.668945 -11.343262,15.774078c10.112427,-6.303833 18.507538,2.087921 28.358154,4.731476c1.760284,14.143616 -8.813171,23.435913 -8.50647,25.23703c10.956421,6.637878 23.696594,-27.107147 32.609436,-9.459381c-2.621887,-2.796021 -5.454773,-3.856323 -8.50647,-3.166382c1.811066,4.001617 4.17511,5.573883 7.09198,4.74234c3.538177,14.172699 -2.356171,20.142456 -7.09198,28.392609c9.549713,5.417786 14.127258,-8.547943 22.688477,-11.042603c14.611816,2.868683 2.516357,21.268097 1.416443,26.802124c15.842651,6.616089 9.995178,-26.253784 24.929352,-24.042389c18.206635,2.690765 7.142761,10.221924 11.935211,24.042389c24.147949,1.64856 -5.194916,-37.28183 -15.596466,-39.427856c-1.557098,-7.229797 4.835419,-4.73877 4.255188,-11.038971c-2.326843,-1.027618 -11.200623,5.232605 -12.761658,3.162781c2.053345,-19.103851 18.062103,3.130157 19.849701,9.452087c8.69989,2.603607 5.753723,-14.949738 -1.418335,-17.331818c0.308655,-7.429504 50.327576,-17.869324 35.446228,14.183594c20.160339,-4.687927 1.668396,-31.159576 -7.086182,-36.265076c9.100403,7.545685 21.240845,-29.521881 29.774597,3.148224c9.231323,-15.345551 -25.193115,-23.711914 -30.622437,-19.07843c-8.807373,7.513 -17.341187,-7.73819 -27.512207,-4.575378c-3.749176,3.794647 -7.529633,7.476715 -11.341339,11.03894c-4.714264,-1.728455 -9.438354,-3.304413 -14.182007,-4.73877c8.576813,-0.907776 8.990997,-19.78653 0,-20.501862c8.410767,-8.460785 26.259827,-14.982452 32.613373,3.162781c2.373779,-27.303253 -33.232697,-15.621552 -39.699463,-12.614899c-0.857666,-17.905579 8.035645,-6.409149 12.755768,-6.311066c-2.106079,-22.121429 -40.072571,11.017151 -49.942749,7.734528c-3.520599,-1.172913 -13.701416,-4.473694 -14.189819,-13.76236c-0.306702,-5.831757 4.999542,-8.896545 6.894623,-10.033081c11.280762,-6.7323 4.546326,2.345764 10.452393,11.318542c14.637207,-4.844055 1.6763,-27.415771 -7.089996,-26.805725c-2.795776,-24.354645 15.631622,-9.495697 21.27002,-6.307434c-0.79126,2.432922 -1.264038,5.06189 -1.422302,7.890625c16.497162,-6.452698 -9.418854,-22.215851 -15.137329,-21.812775c-3.436584,0.239655 -30.82962,13.239441 -27.396942,-3.424225c3.78241,0 7.562866,0 11.345215,0c-4.958527,-12.720215 -25.841766,-10.882813 -31.194946,0c-13.859619,2.545471 -27.813049,-5.138214 -37.212372,-23.268951c-5.026886,-9.691727 -20.967224,-36.81337 -12.947235,-51.447235c7.406525,-13.522675 32.793091,-9.412155 17.548248,13.210419c13.140686,8.14122 18.849426,-19.321762 8.508392,-33.120438c3.211945,1.851929 5.573975,5.530365 7.086151,11.042572c3.905487,-5.446838 8.272003,-7.244293 13.097687,-5.388748c17.171173,4.760559 6.345642,13.243088 6.75592,27.466614c8.34433,6.456314 13.732666,-8.192062 9.838928,-20.40387c-6.894653,-21.623947 7.572571,-12.901764 12.845642,-17.448059c-2.928619,-8.540634 -11.071686,-3.958038 -14.936127,-2.2005c-6.390594,2.912216 -14.291412,-8.965515 -21.926483,-11.986679c5.841553,-3.024826 38.710846,7.113556 39.697449,18.922302c13.894836,-13.689728 -26.8284,-20.436539 -26.939728,-20.501907c3.295898,-1.336288 6.603516,-1.336288 9.926788,0c-0.937775,-5.116409 -1.410583,-10.370789 -1.416443,-15.770416c5.317993,1.423431 0.992493,5.817215 1.416443,11.046188c7.301056,-2.89772 40.883392,26.253784 36.866577,45.731689c14.590302,2.414764 -5.51535,-34.503937 -7.090027,-39.424225c12.785095,-12.589478 18.368805,4.135956 24.106873,14.190811c12.945282,-20.316727 -33.386993,-28.232788 -35.450134,-33.116791c29.567474,16.108124 -5.024963,-3.391556 14.379333,-10.835571c6.744202,-2.589081 40.05307,-5.849915 30.993683,23.454086c17.948792,0.02179 -0.660339,-24.735931 -1.420319,-33.124062c1.834534,6.797676 11.106873,21.918068 13.871338,18.57737c8.619781,-10.410736 20.342072,19.971756 10.235504,31.896713c8.973419,3.260818 14.981049,-15.636093 17.907745,-22.422852c-2.055298,1.506958 -2.821167,4.244919 -2.311218,8.228363c5.105042,-2.451065 32.173767,5.955215 21.27002,25.233398c5.736145,4.17955 7.965332,-6.118607 8.50647,-14.19809c-5.532898,-14.69194 -15.424561,-20.560028 -21.268127,-34.692749c1.119507,-4.154129 3.010681,-5.730087 5.669678,-4.731506c1.088196,-13.141396 -14.328491,-5.773636 -12.286865,-9.17247c2.397217,-4.005241 9.9151,-1.822876 12.286865,1.285454c1.096008,-15.076859 -16.782349,-12.890862 -21.268097,-15.770432c4.466187,-0.962273 29.522552,2.774261 21.268097,20.50193c11.845398,0.475693 4.495544,-24.601578 -2.834839,-26.809372c11.185059,-4.161385 10.239441,15.145859 9.926819,23.657455c4.173157,2.32399 8.424438,3.907211 12.759705,4.735123c0.945618,5.254379 1.891235,10.512405 2.836792,15.7668c8.901123,-4.037933 4.052002,-17.455322 1.41449,-26.809364c8.727234,-9.757103 24.397949,-6.129509 22.688477,12.622139c5.909973,2.029877 3.346741,-7.16803 8.50647,-6.311066c-3.460022,7.164413 6.86145,8.954605 5.671631,17.350006c-2.410828,0.689926 -4.772888,1.739349 -7.091919,3.151901c3.377869,4.466431 33.51001,-30.030258 31.198792,4.731491c-7.650757,-21.264481 -23.290222,-5.548508 -18.486023,-0.73349c11.618713,11.648972 -11.900085,13.130508 -14.125366,13.35202c-4.083252,3.972549 14.207397,10.334457 18.403992,7.324173c5.57196,-3.994354 11.286621,-2.901337 15.614075,5.305252c6.117065,11.609009 -0.767822,9.731674 -4.245422,17.331833c8.639343,8.569702 10.671204,-10.919113 17.018799,-15.774063c-1.293335,24.452698 -23.223816,27.09259 -32.615295,26.81662c5.72052,19.793839 52.611511,-18.929596 36.864563,15.7668c2.528137,7.218872 9.110291,-2.037109 12.761719,1.583206c8.912903,15.276566 -2.682495,13.88945 -5.669739,22.077866c10.692749,6.692352 17.911682,-18.014526 28.356262,0c-3.968018,0.083527 -7.752319,-1.496063 -11.343262,-4.731476c11.718323,20.48378 -24.263184,25.828934 -24.10498,28.385269c7.049011,7.084564 32.472717,-5.036499 28.360168,15.770477c-2.842712,-0.87149 -5.675537,-0.87149 -8.50647,0c-2.371887,19.230957 27.992798,-3.66391 18.433289,-18.922333c0.105469,-0.337708 19.122925,8.311859 23.090881,9.797058c21.270081,7.97052 -1.068665,17.132141 -3.24115,23.319702c4.831482,9.172485 15.459656,1.960876 18.433289,-7.887024c-3.239258,7.843475 14.496521,40.223114 -7.090027,36.272339c7.12323,8.787567 15.750793,-0.664459 22.702148,-4.727814c13.236328,-7.730927 12.978516,3.387909 12.745972,18.929596c20.635132,-1.205597 -0.332092,-28.247345 3.971924,-39.609467c9.596619,-25.338745 34.606079,11.630829 22.967834,15.944733c7.816833,10.697571 13.357544,-22.437347 13.789368,-21.315308c0.44928,3.217255 0.109314,6.118591 -1.02771,8.704071c7.934021,1.209198 18.925598,21.652954 5.671631,28.388916c7.402588,8.279205 14.269958,-12.09198 22.686523,-9.462982c-1.801331,2.222321 -9.844788,0.257813 -9.924866,6.311066c4.466187,8.137573 8.666687,-4.789581 9.909241,11.460144c1.250366,16.293335 -6.632874,22.658875 -14.168335,21.656677c0.92804,6.274719 43.417358,-6.267517 24.104919,20.501892c3.581116,0.355835 20.113464,-11.478302 11.345215,-17.350006c1.057007,0.780731 30.722107,4.172302 21.27002,14.187195c15.795837,-19.350769 -35.207886,-36.511963 -19.24408,-45.143402c7.894958,-4.266693 20.777771,9.542877 22.039856,1.735718c2.836792,-17.54245 24.16156,-13.791412 22.723694,3.990753c11.726135,-15.821289 -31.081604,-34.071869 -38.28302,-29.968567c7.738647,-2.342163 12.349365,-10.962677 11.544434,-25.705444c-1.377319,-25.106323 -8.539673,-6.20575 -14.461365,-19.815613c-1.605957,-3.696594 16.819519,2.585419 15.141235,5.744598c-1.72113,1.049408 -2.487,3.264496 -2.295532,6.656067c2.71759,-0.34137 17.602966,-14.728302 8.504517,-20.501953c10.1651,10.036713 34.408813,-16.827103 36.866516,17.346375c14.424316,-29.27858 -37.960632,-20.734283 -35.446228,-39.420593c5.337646,-1.329056 10.53833,-0.276001 15.592651,3.155533c2.473328,-25.364136 -44.212585,-7.077271 -49.622375,-7.887024c-1.156616,-6.441803 -20.005981,-23.57756 -4.331421,-23.73735c6.86145,-0.068985 14.584473,19.187408 15.672791,-4.651596c-1.84436,-1.684891 -3.731689,-1.684891 -5.673706,0c4.257202,-7.218872 24.564087,-7.494858 25.195129,-3.751068c-2.559387,-15.258423 -20.887085,-17.386322 -28.461731,-17.883789c-12.281006,-0.809769 -25.396301,-5.029236 -37.845398,-13.065155c-19.605469,14.339706 -39.97876,1.85556 -58.134583,1.583206c9.315247,-8.998169 18.822083,-61.244286 32.607483,-25.233398c-2.07489,-29.692543 -40.373535,-24.732292 -51.044739,-25.233391c-2.688293,-8.813004 5.980347,-6.336502 5.51532,-5.809982c-2.092346,0.257828 -2.987183,2.193268 -2.680481,5.809982c3.684753,1.038528 6.84198,-0.70446 9.479431,-5.225349c4.561951,-9.590065 5.738037,0.167038 13.210999,-1.082108c1.467285,-5.661079 -5.370728,-10.519653 -4.813904,-16.707275c1.30896,-14.503128 15.7547,-0.649994 18.992004,2.509171c5.335571,-16.620125 -35.717773,-28.828316 -39.701355,-28.385307c-11.179199,-14.350609 -23.600891,-25.658253 -36.61261,-32.971546c-9.215637,-5.181763 -18.782959,-8.297356 -28.420715,-8.667744c-13.734619,-0.530159 -10.966125,-14.568485 -23.577393,-15.149481c-16.022339,-0.733508 -31.544617,-7.171676 -47.496704,-10.171071c-20.654663,-3.878151 -35.688477,7.828928 -55.307648,11.757916c-37.864899,7.578373 -71.240204,6.307444 -108.177063,29.507357c-33.078339,20.777889 -66.740814,40.085125 -98.92627,65.365742c-14.478973,11.373001 -27.609863,25.854332 -41.393341,39.653008c-15.526138,15.538025 -33.398712,21.122864 -47.840546,40.528137c-58.298782,78.325562 -131.977211,156.96347 -205.58725,162.417542c0,-24.133118 35.846725,-13.704254 48.207867,-23.668304c-9.455971,0.406677 -18.908031,1.194672 -28.365957,1.575928c-17.29036,0.700836 -19.841909,5.770081 -19.841909,-26.79483c18.351225,9.858765 40.203503,3.431519 58.832161,0.127075c14.856033,-2.63623 42.811714,1.354492 54.598457,-19.056641c-13.986626,7.538422 -113.430618,26.19928 -113.430618,-9.466614" fill="#007CC2" clip-rule="evenodd" fill-rule="evenodd"/>
  </g>
 </g>
</svg>