<?xml version="1.0" encoding="utf-8"?>
<!-- Generator: Adobe Illustrator 16.0.4, SVG Export Plug-In . SVG Version: 6.00 Build 0)  -->
<!DOCTYPE svg PUBLIC "-//W3C//DTD SVG 1.1//EN" "http://www.w3.org/Graphics/SVG/1.1/DTD/svg11.dtd">
<svg version="1.1" id="Layer_1" xmlns="http://www.w3.org/2000/svg" xmlns:xlink="http://www.w3.org/1999/xlink" x="0px" y="0px"
	 width="637.795px" height="87.875px" viewBox="0 0 637.795 87.875" style="enable-background:new 0 0 637.795 87.875;"
	 xml:space="preserve">
<g id="Слой_x0020_1">
	<g id="XMLID_1_">
		<g>
			<polygon style="fill:#FF847C;" points="500.817,58.927 498.098,58.787 495.397,58.507 494.817,58.437 478.737,56.397 
				478.157,54.007 496.768,55.977 498.768,56.117 500.768,56.177 502.768,56.117 504.768,56.007 506.768,55.757 508.737,55.367 
				510.657,54.787 512.487,54.007 516.128,54.007 515.067,54.867 513.928,55.647 512.737,56.317 511.487,56.897 508.897,57.897 
				507.598,58.287 506.268,58.587 504.928,58.817 503.567,58.927 			"/>
			<polygon style="fill:#FF847C;" points="503.567,58.927 504.928,58.817 506.268,58.587 507.598,58.287 508.897,57.897 
				511.487,56.897 512.737,56.317 513.928,55.647 515.067,54.867 516.128,54.007 516.128,50.757 516.128,50.747 518.258,50.707 
				517.287,52.617 516.067,54.397 514.647,56.007 513.018,57.397 511.237,58.587 509.287,59.507 507.268,60.177 505.157,60.587 
				503.018,60.697 500.878,60.557 498.768,60.117 496.737,59.397 494.817,58.447 494.817,58.437 495.397,58.507 498.098,58.787 
				500.817,58.927 			"/>
			<polygon style="fill:#FF847C;" points="519.567,44.287 519.378,46.677 519.378,46.687 516.128,46.627 516.128,46.617 
				516.128,44.287 516.128,41.967 519.378,41.907 			"/>
			<polygon style="fill:#FF847C;" points="512.487,54.007 510.598,48.677 510.598,44.287 510.598,39.897 512.487,34.557 
				516.128,34.557 516.128,37.827 512.487,37.757 512.487,42.037 516.128,41.967 516.128,44.287 516.128,46.617 516.128,46.627 
				512.487,46.557 512.487,50.817 516.128,50.747 516.128,50.757 516.128,54.007 			"/>
			<polygon style="fill:#FF847C;" points="498.768,28.477 500.878,28.037 503.018,27.867 505.157,28.007 507.268,28.397 
				509.287,29.057 511.237,30.007 513.018,31.177 514.647,32.587 516.067,34.177 517.287,35.947 518.268,37.867 518.268,37.877 
				516.128,37.827 516.128,34.557 515.878,34.337 515.598,34.117 515.348,33.927 515.067,33.697 514.518,33.317 513.928,32.947 
				513.348,32.587 512.737,32.287 512.128,31.977 511.487,31.677 510.848,31.427 510.207,31.177 509.567,30.927 508.897,30.697 
				508.268,30.477 507.598,30.307 506.928,30.147 506.268,29.977 505.598,29.867 504.928,29.757 504.237,29.697 503.567,29.647 
				502.878,29.647 502.207,29.617 501.518,29.647 500.817,29.677 499.457,29.727 498.098,29.807 497.428,29.867 496.737,29.927 
				496.067,29.977 495.397,30.057 494.857,30.127 496.737,29.177 			"/>
			<polygon style="fill:#FF847C;" points="503.268,32.477 502.768,32.447 502.268,32.447 501.768,32.427 501.268,32.427 
				500.768,32.427 500.268,32.427 499.758,32.427 499.268,32.447 498.768,32.447 498.268,32.477 497.768,32.537 497.268,32.557 
				496.768,32.617 478.157,34.557 478.737,32.197 494.857,30.127 495.397,30.057 496.067,29.977 496.737,29.927 497.428,29.867 
				498.098,29.807 499.457,29.727 500.817,29.677 501.518,29.647 502.207,29.617 502.878,29.647 503.567,29.647 504.237,29.697 
				504.928,29.757 505.598,29.867 506.268,29.977 506.928,30.147 507.598,30.307 508.268,30.477 508.897,30.697 509.567,30.927 
				510.207,31.177 510.848,31.427 511.487,31.677 512.128,31.977 512.737,32.287 513.348,32.587 513.928,32.947 514.518,33.317 
				515.067,33.697 515.348,33.927 515.598,34.117 515.878,34.337 516.128,34.557 512.487,34.557 512.037,34.367 511.567,34.177 
				511.128,33.977 510.657,33.807 510.178,33.647 509.678,33.477 509.207,33.337 508.737,33.197 508.237,33.087 507.737,32.977 
				507.268,32.897 506.768,32.817 506.268,32.727 505.768,32.677 505.268,32.617 504.768,32.587 504.268,32.537 503.768,32.507 			
				"/>
			<polygon style="fill:#FF847C;" points="499.268,32.447 499.758,32.427 500.268,32.427 500.768,32.427 501.268,32.427 
				501.768,32.427 502.268,32.447 502.768,32.447 503.268,32.477 503.768,32.507 504.268,32.537 504.768,32.587 505.268,32.617 
				505.768,32.677 506.268,32.727 506.768,32.817 507.268,32.897 507.737,32.977 508.237,33.087 508.737,33.197 509.207,33.337 
				509.678,33.477 510.178,33.647 510.657,33.807 511.128,33.977 511.567,34.177 512.037,34.367 512.487,34.557 510.598,39.897 
				510.598,44.287 510.598,48.677 512.487,54.007 510.657,54.787 508.737,55.367 506.768,55.757 504.768,56.007 502.768,56.117 
				500.768,56.177 498.768,56.117 496.768,55.977 478.157,54.007 477.317,50.607 479.567,50.557 479.567,49.927 502.567,49.397 
				502.567,47.977 479.567,47.427 479.567,46.817 476.848,46.757 476.848,44.287 476.848,41.837 479.567,41.787 479.567,41.147 
				502.567,40.617 502.567,39.197 479.567,38.647 479.567,38.037 477.317,37.987 478.157,34.557 496.768,32.617 497.268,32.557 
				497.768,32.537 498.268,32.477 498.768,32.447 			"/>
			<polygon style="fill:#FF847C;" points="451.598,58.787 448.878,58.507 448.317,58.437 432.207,56.397 431.628,54.007 
				450.268,55.977 452.268,56.117 454.268,56.177 456.268,56.117 458.268,56.007 460.268,55.757 462.207,55.367 464.128,54.787 
				465.987,54.007 469.598,54.007 468.537,54.867 467.397,55.647 466.207,56.317 464.987,56.897 462.397,57.897 461.067,58.287 
				459.768,58.587 458.397,58.817 457.037,58.927 454.317,58.927 			"/>
			<polygon style="fill:#FF847C;" points="448.878,58.507 451.598,58.787 454.317,58.927 457.037,58.927 458.397,58.817 
				459.768,58.587 461.067,58.287 462.397,57.897 464.987,56.897 466.207,56.317 467.397,55.647 468.537,54.867 469.598,54.007 
				469.598,50.757 469.598,50.747 471.728,50.707 470.768,52.617 469.567,54.397 468.128,56.007 466.518,57.397 464.707,58.587 
				462.787,59.507 460.737,60.177 458.647,60.587 456.487,60.697 455.378,60.627 454.348,60.557 452.268,60.117 450.237,59.397 
				448.317,58.447 448.317,58.437 			"/>
			<polygon style="fill:#FF847C;" points="472.878,41.907 473.037,44.287 472.878,46.677 472.878,46.687 469.598,46.627 
				469.598,46.617 469.598,44.287 469.598,41.967 			"/>
			<polygon style="fill:#FF847C;" points="464.067,44.287 464.067,39.897 465.987,34.557 469.598,34.557 469.598,37.827 
				465.987,37.757 465.987,42.037 469.598,41.967 469.598,44.287 469.598,46.617 469.598,46.627 465.987,46.557 465.987,50.817 
				469.598,50.747 469.598,50.757 469.598,54.007 465.987,54.007 464.067,48.677 			"/>
			<polygon style="fill:#FF847C;" points="448.367,30.127 450.237,29.177 452.268,28.477 454.348,28.037 455.378,27.957 
				456.487,27.867 458.647,28.007 460.737,28.397 462.787,29.057 464.707,30.007 466.518,31.177 468.128,32.587 469.567,34.177 
				470.768,35.947 471.737,37.867 469.598,37.827 469.598,34.557 469.098,34.117 468.537,33.697 467.987,33.317 467.397,32.947 
				466.817,32.587 466.207,32.287 465.598,31.977 464.987,31.677 464.348,31.427 463.678,31.177 462.397,30.697 461.737,30.477 
				461.067,30.307 460.407,30.147 459.768,29.977 459.067,29.867 458.397,29.757 457.737,29.697 457.037,29.647 456.378,29.647 
				455.678,29.617 454.317,29.677 452.957,29.727 451.598,29.807 450.237,29.927 448.878,30.057 			"/>
			<polygon style="fill:#FF847C;" points="448.878,30.057 450.237,29.927 451.598,29.807 452.957,29.727 454.317,29.677 
				455.678,29.617 456.378,29.647 457.037,29.647 457.737,29.697 458.397,29.757 459.067,29.867 459.768,29.977 460.407,30.147 
				461.067,30.307 461.737,30.477 462.397,30.697 463.678,31.177 464.348,31.427 464.987,31.677 465.598,31.977 466.207,32.287 
				466.817,32.587 467.397,32.947 467.987,33.317 468.537,33.697 469.098,34.117 469.598,34.557 465.987,34.557 465.067,34.177 
				464.128,33.807 463.178,33.477 462.207,33.197 461.237,32.977 460.268,32.817 459.268,32.677 458.268,32.587 457.268,32.507 
				456.268,32.447 455.268,32.427 454.268,32.427 453.268,32.427 452.268,32.447 451.268,32.537 450.268,32.617 431.628,34.557 
				432.207,32.197 448.367,30.127 			"/>
			<polygon style="fill:#FF847C;" points="465.987,34.557 464.067,39.897 464.067,44.287 464.067,48.677 465.987,54.007 
				464.128,54.787 462.207,55.367 460.268,55.757 458.268,56.007 456.268,56.117 454.268,56.177 452.268,56.117 450.268,55.977 
				431.628,54.007 430.317,48.677 430.317,44.287 430.317,39.897 431.628,34.557 450.268,32.617 451.268,32.537 452.268,32.447 
				453.268,32.427 454.268,32.427 455.268,32.427 456.268,32.447 457.268,32.507 458.268,32.587 459.268,32.677 460.268,32.817 
				461.237,32.977 462.207,33.197 463.178,33.477 464.128,33.807 465.067,34.177 			"/>
			<polygon style="fill:#FF847C;" points="166.958,28.477 168.987,29.177 170.848,30.117 170.348,30.057 169.647,29.977 
				168.987,29.927 168.288,29.867 167.627,29.807 166.268,29.727 164.897,29.677 164.208,29.647 163.518,29.617 162.848,29.647 
				162.147,29.647 161.487,29.697 160.817,29.757 160.127,29.867 159.458,29.977 158.788,30.147 158.127,30.307 157.487,30.477 
				156.817,30.697 156.177,30.927 155.518,31.177 154.877,31.427 154.237,31.677 153.627,31.977 152.987,32.287 152.397,32.587 
				151.788,32.947 151.208,33.317 150.647,33.697 150.397,33.927 150.127,34.117 149.877,34.337 149.598,34.557 149.598,37.827 
				147.487,37.867 148.427,35.947 149.647,34.177 151.067,32.587 152.708,31.177 154.487,30.007 156.427,29.057 158.458,28.397 
				160.567,28.007 161.208,27.967 162.708,27.867 164.848,28.037 			"/>
			<polygon style="fill:#FF847C;" points="167.958,32.537 166.958,32.447 165.958,32.427 164.958,32.427 163.958,32.427 
				162.958,32.447 161.958,32.507 160.958,32.587 159.958,32.677 159.458,32.727 158.958,32.817 158.458,32.897 157.987,32.977 
				157.487,33.087 157.018,33.197 156.518,33.337 156.038,33.477 155.567,33.647 155.098,33.807 154.627,33.977 154.147,34.177 
				153.677,34.367 153.237,34.557 149.598,34.557 149.877,34.337 150.127,34.117 150.397,33.927 150.647,33.697 151.208,33.317 
				151.788,32.947 152.397,32.587 152.987,32.287 153.627,31.977 154.237,31.677 154.877,31.427 155.518,31.177 156.177,30.927 
				156.817,30.697 157.487,30.477 158.127,30.307 158.788,30.147 159.458,29.977 160.127,29.867 160.817,29.757 161.487,29.697 
				162.147,29.647 162.848,29.647 163.518,29.617 164.208,29.647 164.897,29.677 166.268,29.727 167.627,29.807 168.288,29.867 
				168.987,29.927 169.647,29.977 170.348,30.057 170.848,30.117 187.018,32.197 187.587,34.557 187.567,34.557 168.958,32.617 			
				"/>
			<polygon style="fill:#FF847C;" points="188.877,44.287 188.877,48.677 187.587,54.017 187.567,54.007 168.958,55.977 
				166.958,56.117 164.958,56.177 162.958,56.117 160.958,56.007 158.958,55.757 157.018,55.367 155.098,54.787 153.237,54.007 
				155.147,48.677 155.147,44.287 155.147,39.897 153.237,34.557 153.677,34.367 154.147,34.177 154.627,33.977 155.098,33.807 
				155.567,33.647 156.038,33.477 156.518,33.337 157.018,33.197 157.487,33.087 157.987,32.977 158.458,32.897 158.958,32.817 
				159.458,32.727 159.958,32.677 160.958,32.587 161.958,32.507 162.958,32.447 163.958,32.427 164.958,32.427 165.958,32.427 
				166.958,32.447 167.958,32.537 168.958,32.617 187.567,34.557 187.587,34.557 188.877,39.897 			"/>
			<polygon style="fill:#FF847C;" points="166.958,56.117 168.958,55.977 187.567,54.007 187.587,54.017 187.018,56.397 
				170.897,58.437 170.348,58.507 167.627,58.787 164.897,58.927 162.147,58.927 160.817,58.817 159.458,58.587 158.127,58.287 
				156.817,57.897 154.237,56.897 152.987,56.317 151.788,55.647 150.647,54.867 149.598,54.007 153.237,54.007 155.098,54.787 
				157.018,55.367 158.958,55.757 160.958,56.007 162.958,56.117 164.958,56.177 			"/>
			<polygon style="fill:#FF847C;" points="167.627,58.787 170.348,58.507 170.897,58.437 170.897,58.447 168.987,59.397 
				166.958,60.117 164.848,60.557 162.708,60.697 161.208,60.617 160.567,60.587 158.458,60.177 156.427,59.507 154.487,58.587 
				152.708,57.397 151.067,56.007 149.647,54.397 148.427,52.617 147.487,50.707 149.598,50.747 149.598,50.757 149.598,54.007 
				150.647,54.867 151.788,55.647 152.987,56.317 154.237,56.897 156.817,57.897 158.127,58.287 159.458,58.587 160.817,58.817 
				162.147,58.927 164.897,58.927 			"/>
			<polygon style="fill:#FF847C;" points="155.147,39.897 155.147,44.287 155.147,48.677 153.237,54.007 149.598,54.007 
				149.598,50.757 149.598,50.747 153.237,50.817 153.237,46.557 149.598,46.627 149.598,46.617 149.598,44.287 149.598,41.967 
				153.237,42.037 153.237,37.757 149.598,37.827 149.598,34.557 153.237,34.557 			"/>
			<polygon style="fill:#FF847C;" points="149.598,44.287 149.598,46.617 149.598,46.627 146.348,46.687 146.348,46.677 
				146.177,44.287 146.348,41.907 149.598,41.967 			"/>
			<polygon style="fill:#FF847C;" points="107.397,54.007 109.268,54.787 111.177,55.367 113.127,55.757 115.127,56.007 
				117.127,56.117 119.127,56.177 121.127,56.117 123.127,55.977 141.757,54.007 141.177,56.397 125.067,58.437 124.518,58.507 
				121.788,58.787 119.067,58.927 116.317,58.927 114.987,58.817 113.627,58.587 112.317,58.287 110.987,57.897 108.397,56.897 
				107.147,56.317 105.958,55.647 104.848,54.867 103.788,54.007 			"/>
			<polygon style="fill:#FF847C;" points="108.647,58.587 106.877,57.397 105.237,56.007 103.817,54.397 102.598,52.617 
				101.657,50.707 103.788,50.747 103.788,50.757 103.788,54.007 104.848,54.867 105.958,55.647 107.147,56.317 108.397,56.897 
				110.987,57.897 112.317,58.287 113.627,58.587 114.987,58.817 116.317,58.927 119.067,58.927 121.788,58.787 124.518,58.507 
				125.067,58.437 125.067,58.447 123.147,59.397 121.127,60.117 119.018,60.557 116.877,60.697 114.737,60.587 112.627,60.177 
				110.598,59.507 			"/>
			<polygon style="fill:#FF847C;" points="103.788,41.967 103.788,44.287 103.788,46.617 103.788,46.627 100.518,46.687 
				100.518,46.677 100.348,44.287 100.518,41.907 			"/>
			<polygon style="fill:#FF847C;" points="107.397,50.817 107.397,46.557 103.788,46.627 103.788,46.617 103.788,44.287 
				103.788,41.967 107.397,42.037 107.397,37.757 103.788,37.827 103.788,34.557 107.397,34.557 109.317,39.897 109.317,44.287 
				109.317,48.677 107.397,54.007 103.788,54.007 103.788,50.757 103.788,50.747 			"/>
			<polygon style="fill:#FF847C;" points="110.348,30.927 109.677,31.177 109.038,31.427 108.397,31.677 107.788,31.977 
				107.147,32.287 106.567,32.587 105.958,32.947 105.397,33.317 104.848,33.697 104.288,34.117 103.788,34.557 103.788,37.827 
				101.647,37.867 102.598,35.947 103.817,34.177 105.237,32.587 106.877,31.177 108.647,30.007 110.598,29.057 112.627,28.397 
				114.737,28.007 116.877,27.867 119.018,28.037 121.127,28.477 123.147,29.177 125.018,30.117 124.518,30.057 123.147,29.927 
				121.788,29.807 120.427,29.727 119.067,29.677 117.708,29.617 117.018,29.647 116.317,29.647 115.647,29.697 114.987,29.757 
				114.288,29.867 113.627,29.977 112.958,30.147 112.317,30.307 111.647,30.477 110.987,30.697 			"/>
			<polygon style="fill:#FF847C;" points="110.208,33.477 109.268,33.807 108.317,34.177 107.397,34.557 103.788,34.557 
				104.288,34.117 104.848,33.697 105.397,33.317 105.958,32.947 106.567,32.587 107.147,32.287 107.788,31.977 108.397,31.677 
				109.038,31.427 109.677,31.177 110.348,30.927 110.987,30.697 111.647,30.477 112.317,30.307 112.958,30.147 113.627,29.977 
				114.288,29.867 114.987,29.757 115.647,29.697 116.317,29.647 117.018,29.647 117.708,29.617 119.067,29.677 120.427,29.727 
				121.788,29.807 123.147,29.927 124.518,30.057 125.018,30.117 141.177,32.197 141.748,34.557 123.127,32.617 122.127,32.537 
				121.127,32.447 120.127,32.427 119.127,32.427 118.127,32.427 117.127,32.447 116.127,32.507 115.127,32.587 114.127,32.677 
				113.127,32.817 112.147,32.977 111.177,33.197 			"/>
			<polygon style="fill:#FF847C;" points="143.038,44.287 143.038,46.747 139.647,46.817 139.647,47.427 116.627,47.977 
				116.627,49.397 139.647,49.927 139.647,50.557 142.567,50.617 141.757,54.007 123.127,55.977 121.127,56.117 119.127,56.177 
				117.127,56.117 115.127,56.007 113.127,55.757 111.177,55.367 109.268,54.787 107.397,54.007 109.317,48.677 109.317,44.287 
				109.317,39.897 107.397,34.557 108.317,34.177 109.268,33.807 110.208,33.477 111.177,33.197 112.147,32.977 113.127,32.817 
				114.127,32.677 115.127,32.587 116.127,32.507 117.127,32.447 118.127,32.427 119.127,32.427 120.127,32.427 121.127,32.447 
				122.127,32.537 123.127,32.617 141.748,34.557 142.578,37.977 139.647,38.037 139.647,38.647 116.627,39.197 116.627,40.617 
				139.647,41.147 139.647,41.787 143.038,41.847 			"/>
			<polygon style="fill:#C2CBCE;" points="143.038,44.287 143.038,41.847 146.348,41.907 146.177,44.287 146.348,46.677 
				146.348,46.687 146.217,46.687 143.038,46.747 			"/>
			<polygon style="fill:#B6B7B7;" points="476.848,44.287 476.848,46.757 472.997,46.687 472.878,46.687 472.878,46.677 
				473.037,44.287 472.878,41.907 476.848,41.837 			"/>
			<polygon style="fill:#A3A9AA;" points="428.897,44.287 428.897,53.927 393.737,68.477 386.268,68.477 386.268,44.287 
				386.268,20.087 393.737,20.087 428.897,34.677 			"/>
			<path style="fill:#A3A9AA;" d="M428.897,34.677l-35.16-14.59h-7.47v24.2v24.19h7.47l35.16-14.55v-9.64V34.677z M452.268,28.477
				l-2.03,0.7l-1.87,0.95l-16.16,2.07l-0.579,2.36l-1.311,5.34v4.39v4.39l1.311,5.33l0.579,2.39l16.11,2.04v0.01l1.92,0.95
				l2.03,0.72l2.08,0.44l1.03,0.07v0.02l-15.28,8.64h-28.61l-10.78,3.53l-61.64,1.55v-11.31l14.89-8.88h-71.47v-9.89v-9.89h71.47
				l-14.89-8.89v-11.28l61.64,1.53l10.78,3.53h28.61l15.28,8.64v0.03l-1.03,0.08L452.268,28.477z"/>
			<polygon style="fill:#A3A9AA;" points="263.518,44.287 263.518,69.287 207.317,54.007 207.317,44.287 207.317,34.557 
				263.518,19.287 			"/>
			<path style="fill:#B6B7B7;" d="M455.378,60.647v-0.02l1.109,0.069l2.16-0.109l2.09-0.41l2.05-0.67l1.92-0.92l1.811-1.19
				l1.61-1.39l1.439-1.61l1.2-1.78l0.96-1.91h0.01l5.58-0.1l0.84,3.4l0.58,2.39l16.08,2.04v0.01l1.92,0.95l2.03,0.72l2.11,0.44
				l2.14,0.14l2.14-0.109l2.11-0.41l2.02-0.67l1.95-0.92l1.78-1.19l1.63-1.39l1.42-1.61l1.22-1.78l0.971-1.91h0.01l7.8-0.149v-0.63
				l23.03-0.53v-1.42l-23.03-0.55v-0.61l-6.689-0.13v-0.01l0.189-2.39l-0.189-2.38l6.689-0.12v-0.64l23.03-0.53v-1.42l-23.03-0.55
				v-0.61l-7.8-0.16v-0.01l-0.98-1.92l-1.22-1.77l-1.42-1.59l-1.63-1.41l-1.78-1.17l-1.95-0.95l-2.02-0.66l-2.11-0.39l-2.14-0.14
				l-2.14,0.17l-2.11,0.44l-2.03,0.7l-1.88,0.95l-16.12,2.07l-0.58,2.36l-0.84,3.43l-0.43-0.01l-5.15-0.11l-0.97-1.92l-1.2-1.77
				l-1.439-1.59l-1.61-1.41l-1.811-1.17l-1.92-0.95l-2.05-0.66l-2.09-0.39l-2.16-0.14l-1.109,0.09v-0.03l-15.28-8.64h-28.61
				l-10.78-3.53l-61.64-1.53v11.28l14.89,8.89h-71.47v9.89v9.89h71.47l-14.89,8.88v11.31l61.64-1.55l10.78-3.53h28.61
				L455.378,60.647z M161.208,27.927l22.31-15.7h58.13l30.48-10.62l2.72-0.02l5.03-0.03h5l5,0.03l5.02,0.03l5,0.06l10.03,0.14
				l10.03,0.16l20.061,0.36l10.02,0.2l10.011,0.14l20.05,0.27l10.03,0.17l5.02,0.11l5,0.11l5.01,0.17l5.021,0.17l5,0.19l5,0.25
				l5,0.25l5,0.28l5,0.3l5.029,0.34l5,0.36l4.971,0.36l5,0.42l5,0.41l5,0.47l5,0.48l5,0.5l4.97,0.52l5,0.56l4.98,0.58l5,0.59
				l4.97,0.64l4.97,0.63l5,0.7l4.95,0.72l4.97,0.75l4.97,0.78l4.95,0.8l4.94,0.87l4.92,0.88l4.939,0.95l4.921,0.97l4.909,1.03
				l4.891,1.05l4.89,1.12l4.86,1.16l4.859,1.22l2.45,0.62l2.41,0.63l4.84,1.31l4.83,1.36l4.811,1.39l4.8,1.44l4.779,1.48l4.801,1.52
				l4.76,1.56l4.77,1.56l4.75,1.63l4.73,1.64l4.75,1.67l4.72,1.67l-9.47,3.36l-9.48,3.25l-9.529,3.14l-9.58,3l-9.61,2.83l-9.67,2.67
				l-9.72,2.44l-9.75,2.28l-9.8,2.08l-9.86,1.92l-9.86,1.75l-9.92,1.609l-9.92,1.471l-9.97,1.34l-9.97,1.22l-9.98,1.11l-9.97,1.029
				l-10,0.94l-10,0.83l-9.971,0.76l-10.029,0.63l-10,0.53l-10,0.42l-10.03,0.33l-20.05,0.42l-20.05,0.25l-40.091,0.69l-20.06,0.31
				l-20.02,0.11l-7.77-0.051l-30.46-10.59h-58.13l-22.31-15.72v-0.03l1.5,0.08l2.14-0.14l2.11-0.44l2.03-0.72l1.91-0.95v-0.01
				l16.12-2.04l0.57-2.38l1.29-5.34v-4.39v-4.39l-1.29-5.34l-0.57-2.36l-16.17-2.08l-1.86-0.94l-2.03-0.7l-2.11-0.44l-2.14-0.17
				l-1.5,0.1V27.927z M263.518,69.287v-25v-25l-56.2,15.27v9.73v9.72L263.518,69.287z"/>
			<polygon style="fill:#C2CBCE;" points="272.127,1.607 241.647,12.227 183.518,12.227 161.208,27.927 161.208,27.967 
				160.567,28.007 158.458,28.397 156.427,29.057 154.487,30.007 152.708,31.177 151.067,32.587 149.647,34.177 148.427,35.947 
				147.487,37.867 147.487,37.877 142.578,37.977 141.748,34.557 141.177,32.197 125.018,30.117 123.147,29.177 121.127,28.477 
				119.018,28.037 116.877,27.867 114.737,28.007 112.627,28.397 110.598,29.057 108.647,30.007 106.877,31.177 105.237,32.587 
				103.817,34.177 102.598,35.947 101.647,37.867 101.647,37.877 93.817,38.037 93.817,38.647 70.817,39.197 70.817,40.617 
				93.817,41.147 93.817,41.787 100.518,41.907 100.348,44.287 100.518,46.677 100.518,46.687 93.817,46.817 93.817,47.427 
				70.817,47.977 70.817,49.397 93.817,49.927 93.817,50.557 101.647,50.707 101.657,50.707 102.598,52.617 103.817,54.397 
				105.237,56.007 106.877,57.397 108.647,58.587 110.598,59.507 112.627,60.177 114.737,60.587 116.877,60.697 119.018,60.557 
				121.127,60.117 123.147,59.397 125.067,58.447 125.067,58.437 141.177,56.397 141.757,54.007 142.567,50.617 142.578,50.617 
				147.487,50.707 148.427,52.617 149.647,54.397 151.067,56.007 152.708,57.397 154.487,58.587 156.427,59.507 158.458,60.177 
				160.567,60.587 161.208,60.617 161.208,60.647 183.518,76.367 241.647,76.367 272.107,86.957 259.817,86.867 239.768,86.507 
				219.708,85.947 199.677,85.177 189.647,84.647 179.647,84.037 169.647,83.287 159.647,82.397 149.708,81.317 139.768,80.057 
				129.817,78.677 119.927,77.117 110.018,75.477 100.147,73.757 90.268,71.947 80.427,70.057 70.627,68.007 60.848,65.727 
				51.147,63.177 46.348,61.757 41.538,60.317 36.768,58.757 32.018,57.117 27.288,55.427 22.598,53.647 17.927,51.757 
				13.348,49.757 8.848,47.537 7.768,46.927 6.708,46.257 5.768,45.367 5.377,44.867 5.127,44.287 5.237,44.007 5.377,43.727 
				5.567,43.447 5.768,43.197 5.987,42.947 6.237,42.727 6.458,42.537 6.708,42.337 7.237,41.977 7.768,41.647 8.848,41.057 
				9.958,40.477 11.067,39.897 12.208,39.367 13.348,38.837 14.487,38.307 15.627,37.817 17.927,36.817 20.268,35.867 
				22.598,34.947 24.958,34.037 27.288,33.147 29.647,32.287 32.018,31.447 34.397,30.617 36.768,29.807 39.147,29.037 
				41.538,28.287 43.958,27.537 46.348,26.807 48.768,26.117 51.147,25.427 53.567,24.757 56.018,24.087 58.427,23.477 
				60.848,22.837 63.288,22.257 65.737,21.677 68.177,21.117 70.627,20.557 73.067,20.037 75.518,19.507 80.427,18.507 
				85.348,17.557 90.268,16.617 95.208,15.727 100.147,14.837 105.098,13.947 110.018,13.087 114.958,12.257 119.927,11.447 
				124.877,10.677 129.817,9.927 134.788,9.197 139.768,8.507 144.737,7.867 149.708,7.257 154.677,6.697 159.647,6.197 
				164.647,5.727 169.647,5.287 174.647,4.897 179.647,4.537 184.647,4.227 189.647,3.927 194.647,3.677 199.677,3.427 
				204.677,3.197 209.677,3.007 214.708,2.807 219.708,2.647 229.737,2.337 239.768,2.057 244.788,1.947 249.788,1.867 
				254.817,1.787 259.817,1.697 264.817,1.647 269.848,1.617 			"/>
			<polygon style="fill:#FF847C;" points="526.067,47.427 549.098,47.977 549.098,49.397 526.067,49.927 526.067,50.557 
				518.268,50.707 518.258,50.707 516.128,50.747 512.487,50.817 512.487,46.557 516.128,46.627 519.378,46.687 526.067,46.817 			
				"/>
			<polygon style="fill:#FF847C;" points="549.098,39.197 549.098,40.617 526.067,41.147 526.067,41.787 519.378,41.907 
				516.128,41.967 512.487,42.037 512.487,37.757 516.128,37.827 516.128,37.837 518.268,37.877 526.067,38.037 526.067,38.647 			
				"/>
			<polygon style="fill:#1F1A17;" points="518.268,37.877 516.128,37.837 516.128,37.827 			"/>
			<polygon style="fill:#FF847C;" points="479.567,38.647 502.567,39.197 502.567,40.617 479.567,41.147 479.567,41.787 
				476.848,41.837 476.848,39.897 477.317,37.987 479.567,38.037 			"/>
			<polygon style="fill:#1F1A17;" points="476.848,46.757 479.567,46.817 476.848,46.767 			"/>
			<polygon style="fill:#1F1A17;" points="479.567,50.557 477.317,50.607 477.317,50.597 			"/>
			<polygon style="fill:#1F1A17;" points="477.317,50.597 477.317,50.607 471.737,50.707 			"/>
			<polygon style="fill:#FF847C;" points="479.567,47.427 502.567,47.977 502.567,49.397 479.567,49.927 479.567,50.557 
				477.317,50.597 476.848,48.677 476.848,46.767 479.567,46.817 			"/>
			<polygon style="fill:#FF847C;" points="476.888,37.977 477.317,37.987 476.848,39.897 476.848,41.837 472.878,41.907 
				469.598,41.967 465.987,42.037 465.987,37.757 469.598,37.827 			"/>
			<polygon style="fill:#1F1A17;" points="476.888,37.977 469.598,37.827 471.737,37.867 			"/>
			<polygon style="fill:#FF847C;" points="476.848,46.767 476.848,48.677 477.317,50.597 471.737,50.707 471.728,50.707 
				469.598,50.747 465.987,50.817 465.987,46.557 469.598,46.627 472.878,46.687 472.997,46.687 			"/>
			<polygon style="fill:#1F1A17;" points="476.848,46.757 476.848,46.767 472.997,46.687 			"/>
			<polygon style="fill:#FF847C;" points="147.487,50.707 142.578,50.617 143.038,48.677 143.038,46.757 146.217,46.687 
				146.348,46.687 149.598,46.627 153.237,46.557 153.237,50.817 149.598,50.747 			"/>
			<rect x="147.487" y="37.847" style="fill:#1F1A17;" width="2.111" height="0.01"/>
			<polygon style="fill:#1F1A17;" points="146.217,46.687 143.038,46.757 143.038,46.747 			"/>
			<polygon style="fill:#1F1A17;" points="143.038,46.747 143.038,46.757 139.647,46.817 			"/>
			<polygon style="fill:#FF847C;" points="142.578,37.977 147.487,37.877 149.598,37.837 149.598,37.827 153.237,37.757 
				153.237,42.037 149.598,41.967 146.348,41.907 143.038,41.847 143.038,39.897 			"/>
			<polygon style="fill:#1F1A17;" points="143.038,48.677 142.578,50.617 142.567,50.617 			"/>
			<polygon style="fill:#FF847C;" points="143.038,48.677 142.567,50.617 139.647,50.557 139.647,49.927 116.627,49.397 
				116.627,47.977 139.647,47.427 139.647,46.817 143.038,46.757 			"/>
			<polygon style="fill:#FF847C;" points="142.578,37.977 143.038,39.897 143.038,41.847 139.647,41.787 139.647,41.147 
				116.627,40.617 116.627,39.197 139.647,38.647 139.647,38.037 			"/>
			<polygon style="fill:#1F1A17;" points="103.788,37.827 101.647,37.877 101.647,37.867 			"/>
			<polygon style="fill:#FF847C;" points="93.817,49.927 70.817,49.397 70.817,47.977 93.817,47.427 93.817,46.817 100.518,46.687 
				103.788,46.627 107.397,46.557 107.397,50.817 103.788,50.747 101.657,50.707 101.647,50.707 93.817,50.557 			"/>
			<polygon style="fill:#FF847C;" points="103.788,37.827 107.397,37.757 107.397,42.037 103.788,41.967 100.518,41.907 
				93.817,41.787 93.817,41.147 70.817,40.617 70.817,39.197 93.817,38.647 93.817,38.037 101.647,37.877 			"/>
		</g>
		<g>
			<line style="fill:none;stroke:#000000;stroke-width:0.25;" x1="411.487" y1="19.287" x2="440.098" y2="19.287"/>
			<line style="fill:none;stroke:#000000;stroke-width:0.25;" x1="476.848" y1="41.837" x2="476.848" y2="44.287"/>
			<line style="fill:none;stroke:#000000;stroke-width:0.25;" x1="510.598" y1="39.897" x2="510.598" y2="44.287"/>
			<line style="fill:none;stroke:#000000;stroke-width:0.25;" x1="516.128" y1="41.967" x2="516.128" y2="44.287"/>
			<line style="fill:none;stroke:#000000;stroke-width:0.25;" x1="516.128" y1="37.827" x2="516.128" y2="34.557"/>
			<polyline style="fill:none;stroke:#000000;stroke-width:0.25;" points="477.317,37.987 478.157,34.557 478.737,32.197 			"/>
			<polyline style="fill:none;stroke:#000000;stroke-width:0.25;" points="478.737,32.197 494.857,30.127 495.397,30.057 			"/>
			<line style="fill:none;stroke:#000000;stroke-width:0.25;" x1="478.157" y1="34.557" x2="496.768" y2="32.617"/>
			<polyline style="fill:none;stroke:#000000;stroke-width:0.25;" points="518.268,37.867 517.287,35.947 516.067,34.177 
				514.647,32.587 513.018,31.177 511.237,30.007 509.287,29.057 507.268,28.397 505.157,28.007 503.018,27.867 500.878,28.037 
				498.768,28.477 496.737,29.177 494.857,30.127 494.817,30.147 			"/>
			<line style="fill:none;stroke:#000000;stroke-width:0.25;" x1="519.567" y1="44.287" x2="519.378" y2="41.907"/>
			<line style="fill:none;stroke:#000000;stroke-width:0.25;" x1="510.598" y1="39.897" x2="512.487" y2="34.557"/>
			<line style="fill:none;stroke:#000000;stroke-width:0.25;" x1="512.487" y1="34.557" x2="516.128" y2="34.557"/>
			<polyline style="fill:none;stroke:#000000;stroke-width:0.25;" points="496.768,32.617 497.268,32.557 497.768,32.537 
				498.268,32.477 498.768,32.447 499.268,32.447 499.758,32.427 500.268,32.427 500.768,32.427 501.268,32.427 501.768,32.427 
				502.268,32.447 502.768,32.447 503.268,32.477 503.768,32.507 504.268,32.537 504.768,32.587 505.268,32.617 505.768,32.677 
				506.268,32.727 506.768,32.817 507.268,32.897 507.737,32.977 508.237,33.087 508.737,33.197 509.207,33.337 509.678,33.477 
				510.178,33.647 510.657,33.807 511.128,33.977 511.567,34.177 512.037,34.367 512.487,34.557 			"/>
			<polyline style="fill:none;stroke:#000000;stroke-width:0.25;" points="495.397,30.057 496.067,29.977 496.737,29.927 
				497.428,29.867 498.098,29.807 499.457,29.727 500.817,29.677 501.518,29.647 502.207,29.617 502.878,29.647 503.567,29.647 
				504.237,29.697 504.928,29.757 505.598,29.867 506.268,29.977 506.928,30.147 507.598,30.307 508.268,30.477 508.897,30.697 
				509.567,30.927 510.207,31.177 510.848,31.427 511.487,31.677 512.128,31.977 512.737,32.287 513.348,32.587 513.928,32.947 
				514.518,33.317 515.067,33.697 515.348,33.927 515.598,34.117 515.878,34.337 516.128,34.557 			"/>
			<line style="fill:none;stroke:#000000;stroke-width:0.25;" x1="430.317" y1="39.897" x2="430.317" y2="44.287"/>
			<line style="fill:none;stroke:#000000;stroke-width:0.25;" x1="464.067" y1="39.897" x2="464.067" y2="44.287"/>
			<line style="fill:none;stroke:#000000;stroke-width:0.25;" x1="469.598" y1="41.967" x2="469.598" y2="44.287"/>
			<line style="fill:none;stroke:#000000;stroke-width:0.25;" x1="469.598" y1="37.827" x2="469.598" y2="34.557"/>
			<polyline style="fill:none;stroke:#000000;stroke-width:0.25;" points="430.317,39.897 431.628,34.557 432.207,32.197 			"/>
			<polyline style="fill:none;stroke:#000000;stroke-width:0.25;" points="432.207,32.197 448.367,30.127 448.878,30.057 			"/>
			<line style="fill:none;stroke:#000000;stroke-width:0.25;" x1="431.628" y1="34.557" x2="450.268" y2="32.617"/>
			<polyline style="fill:none;stroke:#000000;stroke-width:0.25;" points="471.737,37.867 470.768,35.947 469.567,34.177 
				468.128,32.587 466.518,31.177 464.707,30.007 462.787,29.057 460.737,28.397 458.647,28.007 456.487,27.867 455.378,27.957 
				454.348,28.037 452.268,28.477 450.237,29.177 448.367,30.127 448.317,30.147 			"/>
			<line style="fill:none;stroke:#000000;stroke-width:0.25;" x1="473.037" y1="44.287" x2="472.878" y2="41.907"/>
			<line style="fill:none;stroke:#000000;stroke-width:0.25;" x1="464.067" y1="39.897" x2="465.987" y2="34.557"/>
			<line style="fill:none;stroke:#000000;stroke-width:0.25;" x1="465.987" y1="34.557" x2="469.598" y2="34.557"/>
			<polyline style="fill:none;stroke:#000000;stroke-width:0.25;" points="450.268,32.617 451.268,32.537 452.268,32.447 
				453.268,32.427 454.268,32.427 455.268,32.427 456.268,32.447 457.268,32.507 458.268,32.587 459.268,32.677 460.268,32.817 
				461.237,32.977 462.207,33.197 463.178,33.477 464.128,33.807 465.067,34.177 465.987,34.557 			"/>
			<polyline style="fill:none;stroke:#000000;stroke-width:0.25;" points="448.878,30.057 450.237,29.927 451.598,29.807 
				452.957,29.727 454.317,29.677 455.678,29.617 456.378,29.647 457.037,29.647 457.737,29.697 458.397,29.757 459.067,29.867 
				459.768,29.977 460.407,30.147 461.067,30.307 461.737,30.477 462.397,30.697 463.678,31.177 464.348,31.427 464.987,31.677 
				465.598,31.977 466.207,32.287 466.817,32.587 467.397,32.947 467.987,33.317 468.537,33.697 469.098,34.117 469.598,34.557 			
				"/>
			<line style="fill:none;stroke:#000000;stroke-width:0.25;" x1="188.877" y1="39.897" x2="188.877" y2="44.287"/>
			<line style="fill:none;stroke:#000000;stroke-width:0.25;" x1="155.147" y1="39.897" x2="155.147" y2="44.287"/>
			<line style="fill:none;stroke:#000000;stroke-width:0.25;" x1="149.598" y1="41.967" x2="149.598" y2="44.287"/>
			<line style="fill:none;stroke:#000000;stroke-width:0.25;" x1="149.598" y1="37.827" x2="149.598" y2="34.557"/>
			<polyline style="fill:none;stroke:#000000;stroke-width:0.25;" points="188.877,39.897 187.587,34.557 187.018,32.197 			"/>
			<polyline style="fill:none;stroke:#000000;stroke-width:0.25;" points="187.018,32.197 170.848,30.117 170.348,30.057 			"/>
			<line style="fill:none;stroke:#000000;stroke-width:0.25;" x1="187.567" y1="34.557" x2="168.958" y2="32.617"/>
			<polyline style="fill:none;stroke:#000000;stroke-width:0.25;" points="170.897,30.147 170.848,30.117 168.987,29.177 
				166.958,28.477 164.848,28.037 162.708,27.867 161.208,27.967 160.567,28.007 158.458,28.397 156.427,29.057 154.487,30.007 
				152.708,31.177 151.067,32.587 149.647,34.177 148.427,35.947 147.487,37.867 			"/>
			<line style="fill:none;stroke:#000000;stroke-width:0.25;" x1="146.348" y1="41.907" x2="146.177" y2="44.287"/>
			<line style="fill:none;stroke:#000000;stroke-width:0.25;" x1="155.147" y1="39.897" x2="153.237" y2="34.557"/>
			<line style="fill:none;stroke:#000000;stroke-width:0.25;" x1="153.237" y1="34.557" x2="149.598" y2="34.557"/>
			<polyline style="fill:none;stroke:#000000;stroke-width:0.25;" points="168.958,32.617 167.958,32.537 166.958,32.447 
				165.958,32.427 164.958,32.427 163.958,32.427 162.958,32.447 161.958,32.507 160.958,32.587 159.958,32.677 159.458,32.727 
				158.958,32.817 158.458,32.897 157.987,32.977 157.487,33.087 157.018,33.197 156.518,33.337 156.038,33.477 155.567,33.647 
				155.098,33.807 154.627,33.977 154.147,34.177 153.677,34.367 153.237,34.557 			"/>
			<polyline style="fill:none;stroke:#000000;stroke-width:0.25;" points="170.348,30.057 169.647,29.977 168.987,29.927 
				168.288,29.867 167.627,29.807 166.268,29.727 164.897,29.677 164.208,29.647 163.518,29.617 162.848,29.647 162.147,29.647 
				161.487,29.697 160.817,29.757 160.127,29.867 159.458,29.977 158.788,30.147 158.127,30.307 157.487,30.477 156.817,30.697 
				156.177,30.927 155.518,31.177 154.877,31.427 154.237,31.677 153.627,31.977 152.987,32.287 152.397,32.587 151.788,32.947 
				151.208,33.317 150.647,33.697 150.397,33.927 150.127,34.117 149.877,34.337 149.598,34.557 			"/>
			<line style="fill:none;stroke:#000000;stroke-width:0.25;" x1="143.038" y1="41.847" x2="143.038" y2="44.287"/>
			<line style="fill:none;stroke:#000000;stroke-width:0.25;" x1="109.317" y1="39.897" x2="109.317" y2="44.287"/>
			<line style="fill:none;stroke:#000000;stroke-width:0.25;" x1="103.788" y1="41.967" x2="103.788" y2="44.287"/>
			<line style="fill:none;stroke:#000000;stroke-width:0.25;" x1="103.788" y1="37.827" x2="103.788" y2="34.557"/>
			<polyline style="fill:none;stroke:#000000;stroke-width:0.25;" points="142.578,37.977 141.748,34.557 141.177,32.197 			"/>
			<polyline style="fill:none;stroke:#000000;stroke-width:0.25;" points="141.177,32.197 125.018,30.117 124.518,30.057 			"/>
			<polyline style="fill:none;stroke:#000000;stroke-width:0.25;" points="141.768,34.557 141.748,34.557 123.127,32.617 			"/>
			<polyline style="fill:none;stroke:#000000;stroke-width:0.25;" points="125.067,30.147 125.018,30.117 123.147,29.177 
				121.127,28.477 119.018,28.037 116.877,27.867 114.737,28.007 112.627,28.397 110.598,29.057 108.647,30.007 106.877,31.177 
				105.237,32.587 103.817,34.177 102.598,35.947 101.647,37.867 			"/>
			<line style="fill:none;stroke:#000000;stroke-width:0.25;" x1="100.518" y1="41.907" x2="100.348" y2="44.287"/>
			<line style="fill:none;stroke:#000000;stroke-width:0.25;" x1="109.317" y1="39.897" x2="107.397" y2="34.557"/>
			<line style="fill:none;stroke:#000000;stroke-width:0.25;" x1="107.397" y1="34.557" x2="103.788" y2="34.557"/>
			<polyline style="fill:none;stroke:#000000;stroke-width:0.25;" points="123.127,32.617 122.127,32.537 121.127,32.447 
				120.127,32.427 119.127,32.427 118.127,32.427 117.127,32.447 116.127,32.507 115.127,32.587 114.127,32.677 113.127,32.817 
				112.147,32.977 111.177,33.197 110.208,33.477 109.268,33.807 108.317,34.177 107.397,34.557 			"/>
			<polyline style="fill:none;stroke:#000000;stroke-width:0.25;" points="124.518,30.057 123.147,29.927 121.788,29.807 
				120.427,29.727 119.067,29.677 117.708,29.617 117.018,29.647 116.317,29.647 115.647,29.697 114.987,29.757 114.288,29.867 
				113.627,29.977 112.958,30.147 112.317,30.307 111.647,30.477 110.987,30.697 110.348,30.927 109.677,31.177 109.038,31.427 
				108.397,31.677 107.788,31.977 107.147,32.287 106.567,32.587 105.958,32.947 105.397,33.317 104.848,33.697 104.288,34.117 
				103.788,34.557 			"/>
			<line style="fill:none;stroke:#000000;stroke-width:0.25;" x1="183.518" y1="12.227" x2="241.647" y2="12.227"/>
			<line style="fill:none;stroke:#000000;stroke-width:0.25;" x1="183.518" y1="12.227" x2="161.208" y2="27.927"/>
			<line style="fill:none;stroke:#000000;stroke-width:0.25;" x1="263.518" y1="19.287" x2="263.518" y2="44.287"/>
			<line style="fill:none;stroke:#000000;stroke-width:0.25;" x1="207.317" y1="34.557" x2="207.317" y2="44.287"/>
			<line style="fill:none;stroke:#000000;stroke-width:0.25;" x1="207.317" y1="34.557" x2="263.518" y2="19.287"/>
			<polyline style="fill:none;stroke:#000000;stroke-width:0.25;" points="241.647,12.227 272.127,1.607 272.177,1.587 			"/>
			<line style="fill:none;stroke:#000000;stroke-width:0.25;" x1="282.487" y1="34.397" x2="282.487" y2="44.287"/>
			<line style="fill:none;stroke:#000000;stroke-width:0.25;" x1="339.067" y1="14.227" x2="339.067" y2="25.507"/>
			<line style="fill:none;stroke:#000000;stroke-width:0.25;" x1="386.268" y1="20.087" x2="386.268" y2="44.287"/>
			<line style="fill:none;stroke:#000000;stroke-width:0.25;" x1="428.897" y1="34.677" x2="428.897" y2="44.287"/>
			<line style="fill:none;stroke:#000000;stroke-width:0.25;" x1="411.487" y1="19.287" x2="400.707" y2="15.757"/>
			<line style="fill:none;stroke:#000000;stroke-width:0.25;" x1="400.707" y1="15.757" x2="339.067" y2="14.227"/>
			<line style="fill:none;stroke:#000000;stroke-width:0.25;" x1="339.067" y1="25.507" x2="353.957" y2="34.397"/>
			<line style="fill:none;stroke:#000000;stroke-width:0.25;" x1="353.957" y1="34.397" x2="282.487" y2="34.397"/>
			<line style="fill:none;stroke:#000000;stroke-width:0.25;" x1="393.737" y1="20.087" x2="386.268" y2="20.087"/>
			<line style="fill:none;stroke:#000000;stroke-width:0.25;" x1="393.737" y1="20.087" x2="428.897" y2="34.677"/>
			<line style="fill:none;stroke:#000000;stroke-width:0.25;" x1="440.098" y1="19.287" x2="455.378" y2="27.927"/>
			<polyline style="fill:none;stroke:#000000;stroke-width:0.25;" points="5.127,44.287 5.237,44.007 5.377,43.727 5.567,43.447 
				5.768,43.197 5.987,42.947 6.237,42.727 6.458,42.537 6.708,42.337 7.237,41.977 7.768,41.647 8.848,41.057 9.958,40.477 
				11.067,39.897 12.208,39.367 13.348,38.837 14.487,38.307 15.627,37.817 17.927,36.817 20.268,35.867 22.598,34.947 
				24.958,34.037 27.288,33.147 29.647,32.287 32.018,31.447 34.397,30.617 36.768,29.807 39.147,29.037 41.538,28.287 
				43.958,27.537 46.348,26.807 48.768,26.117 51.147,25.427 53.567,24.757 56.018,24.087 58.427,23.477 60.848,22.837 
				63.288,22.257 65.737,21.677 68.177,21.117 70.627,20.557 73.067,20.037 75.518,19.507 80.427,18.507 85.348,17.557 
				90.268,16.617 95.208,15.727 100.147,14.837 105.098,13.947 110.018,13.087 114.958,12.257 119.927,11.447 124.877,10.677 
				129.817,9.927 134.788,9.197 139.768,8.507 144.737,7.867 149.708,7.257 154.677,6.697 159.647,6.197 164.647,5.727 
				169.647,5.287 174.647,4.897 179.647,4.537 184.647,4.227 189.647,3.927 194.647,3.677 199.677,3.427 204.677,3.197 
				209.677,3.007 214.708,2.807 219.708,2.647 229.737,2.337 239.768,2.057 244.788,1.947 249.788,1.867 254.817,1.787 
				259.817,1.697 264.817,1.647 269.848,1.617 272.127,1.607 274.848,1.587 279.877,1.557 284.877,1.557 289.877,1.587 
				294.897,1.617 299.897,1.677 309.927,1.817 319.957,1.977 340.018,2.337 350.037,2.537 360.048,2.677 380.098,2.947 
				390.128,3.117 395.147,3.227 400.147,3.337 405.157,3.507 410.178,3.677 415.178,3.867 420.178,4.117 425.178,4.367 
				430.178,4.647 435.178,4.947 440.207,5.287 445.207,5.647 450.178,6.007 455.178,6.427 460.178,6.837 465.178,7.307 
				470.178,7.787 475.178,8.287 480.147,8.807 485.147,9.367 490.128,9.947 495.128,10.537 500.098,11.177 505.067,11.807 
				510.067,12.507 515.018,13.227 519.987,13.977 524.957,14.757 529.907,15.557 534.848,16.427 539.768,17.307 544.707,18.257 
				549.628,19.227 554.537,20.257 559.428,21.307 564.317,22.427 569.178,23.587 574.037,24.807 576.487,25.427 578.897,26.057 
				583.737,27.367 588.567,28.727 593.378,30.117 598.178,31.557 602.957,33.037 607.758,34.557 612.518,36.117 617.287,37.677 
				622.037,39.307 626.768,40.947 631.518,42.617 636.237,44.287 			"/>
			<line style="fill:none;stroke:#000000;stroke-width:0.25;" x1="411.487" y1="69.287" x2="440.098" y2="69.287"/>
			<line style="fill:none;stroke:#000000;stroke-width:0.25;" x1="476.848" y1="46.757" x2="476.848" y2="44.287"/>
			<line style="fill:none;stroke:#000000;stroke-width:0.25;" x1="510.598" y1="48.677" x2="510.598" y2="44.287"/>
			<line style="fill:none;stroke:#000000;stroke-width:0.25;" x1="516.128" y1="46.617" x2="516.128" y2="44.287"/>
			<line style="fill:none;stroke:#000000;stroke-width:0.25;" x1="516.128" y1="50.757" x2="516.128" y2="54.007"/>
			<polyline style="fill:none;stroke:#000000;stroke-width:0.25;" points="477.317,50.607 478.157,54.007 478.737,56.397 			"/>
			<polyline style="fill:none;stroke:#000000;stroke-width:0.25;" points="478.737,56.397 494.817,58.437 495.397,58.507 			"/>
			<line style="fill:none;stroke:#000000;stroke-width:0.25;" x1="478.157" y1="54.007" x2="496.768" y2="55.977"/>
			<polyline style="fill:none;stroke:#000000;stroke-width:0.25;" points="494.817,58.447 496.737,59.397 498.768,60.117 
				500.878,60.557 503.018,60.697 505.157,60.587 507.268,60.177 509.287,59.507 511.237,58.587 513.018,57.397 514.647,56.007 
				516.067,54.397 517.287,52.617 518.258,50.707 			"/>
			<line style="fill:none;stroke:#000000;stroke-width:0.25;" x1="519.378" y1="46.677" x2="519.567" y2="44.287"/>
			<line style="fill:none;stroke:#000000;stroke-width:0.25;" x1="510.598" y1="48.677" x2="512.487" y2="54.007"/>
			<line style="fill:none;stroke:#000000;stroke-width:0.25;" x1="512.487" y1="54.007" x2="516.128" y2="54.007"/>
			<polyline style="fill:none;stroke:#000000;stroke-width:0.25;" points="496.768,55.977 498.768,56.117 500.768,56.177 
				502.768,56.117 504.768,56.007 506.768,55.757 508.737,55.367 510.657,54.787 512.487,54.007 			"/>
			<polyline style="fill:none;stroke:#000000;stroke-width:0.25;" points="495.397,58.507 498.098,58.787 500.817,58.927 
				503.567,58.927 504.928,58.817 506.268,58.587 507.598,58.287 508.897,57.897 511.487,56.897 512.737,56.317 513.928,55.647 
				515.067,54.867 516.128,54.007 			"/>
			<line style="fill:none;stroke:#000000;stroke-width:0.25;" x1="430.317" y1="48.677" x2="430.317" y2="44.287"/>
			<line style="fill:none;stroke:#000000;stroke-width:0.25;" x1="464.067" y1="48.677" x2="464.067" y2="44.287"/>
			<line style="fill:none;stroke:#000000;stroke-width:0.25;" x1="469.598" y1="46.617" x2="469.598" y2="44.287"/>
			<line style="fill:none;stroke:#000000;stroke-width:0.25;" x1="469.598" y1="50.757" x2="469.598" y2="54.007"/>
			<polyline style="fill:none;stroke:#000000;stroke-width:0.25;" points="430.317,48.677 431.628,54.007 432.207,56.397 			"/>
			<polyline style="fill:none;stroke:#000000;stroke-width:0.25;" points="432.207,56.397 448.317,58.437 448.878,58.507 			"/>
			<line style="fill:none;stroke:#000000;stroke-width:0.25;" x1="431.628" y1="54.007" x2="450.268" y2="55.977"/>
			<polyline style="fill:none;stroke:#000000;stroke-width:0.25;" points="448.317,58.447 450.237,59.397 452.268,60.117 
				454.348,60.557 455.378,60.627 456.487,60.697 458.647,60.587 460.737,60.177 462.787,59.507 464.707,58.587 466.518,57.397 
				468.128,56.007 469.567,54.397 470.768,52.617 471.728,50.707 			"/>
			<line style="fill:none;stroke:#000000;stroke-width:0.25;" x1="472.878" y1="46.677" x2="473.037" y2="44.287"/>
			<line style="fill:none;stroke:#000000;stroke-width:0.25;" x1="464.067" y1="48.677" x2="465.987" y2="54.007"/>
			<line style="fill:none;stroke:#000000;stroke-width:0.25;" x1="465.987" y1="54.007" x2="469.598" y2="54.007"/>
			<polyline style="fill:none;stroke:#000000;stroke-width:0.25;" points="450.268,55.977 452.268,56.117 454.268,56.177 
				456.268,56.117 458.268,56.007 460.268,55.757 462.207,55.367 464.128,54.787 465.987,54.007 			"/>
			<polyline style="fill:none;stroke:#000000;stroke-width:0.25;" points="448.878,58.507 451.598,58.787 454.317,58.927 
				457.037,58.927 458.397,58.817 459.768,58.587 461.067,58.287 462.397,57.897 464.987,56.897 466.207,56.317 467.397,55.647 
				468.537,54.867 469.598,54.007 			"/>
			<line style="fill:none;stroke:#000000;stroke-width:0.25;" x1="188.877" y1="48.677" x2="188.877" y2="44.287"/>
			<line style="fill:none;stroke:#000000;stroke-width:0.25;" x1="155.147" y1="48.677" x2="155.147" y2="44.287"/>
			<line style="fill:none;stroke:#000000;stroke-width:0.25;" x1="149.598" y1="46.617" x2="149.598" y2="44.287"/>
			<line style="fill:none;stroke:#000000;stroke-width:0.25;" x1="149.598" y1="50.757" x2="149.598" y2="54.007"/>
			<polyline style="fill:none;stroke:#000000;stroke-width:0.25;" points="188.877,48.677 187.587,54.017 187.018,56.397 			"/>
			<polyline style="fill:none;stroke:#000000;stroke-width:0.25;" points="187.018,56.397 170.897,58.437 170.348,58.507 			"/>
			<line style="fill:none;stroke:#000000;stroke-width:0.25;" x1="187.567" y1="54.007" x2="168.958" y2="55.977"/>
			<polyline style="fill:none;stroke:#000000;stroke-width:0.25;" points="147.487,50.707 148.427,52.617 149.647,54.397 
				151.067,56.007 152.708,57.397 154.487,58.587 156.427,59.507 158.458,60.177 160.567,60.587 161.208,60.617 162.708,60.697 
				164.848,60.557 166.958,60.117 168.987,59.397 170.897,58.447 			"/>
			<line style="fill:none;stroke:#000000;stroke-width:0.25;" x1="146.177" y1="44.287" x2="146.348" y2="46.677"/>
			<line style="fill:none;stroke:#000000;stroke-width:0.25;" x1="155.147" y1="48.677" x2="153.237" y2="54.007"/>
			<line style="fill:none;stroke:#000000;stroke-width:0.25;" x1="153.237" y1="54.007" x2="149.598" y2="54.007"/>
			<polyline style="fill:none;stroke:#000000;stroke-width:0.25;" points="168.958,55.977 166.958,56.117 164.958,56.177 
				162.958,56.117 160.958,56.007 158.958,55.757 157.018,55.367 155.098,54.787 153.237,54.007 			"/>
			<polyline style="fill:none;stroke:#000000;stroke-width:0.25;" points="170.348,58.507 167.627,58.787 164.897,58.927 
				162.147,58.927 160.817,58.817 159.458,58.587 158.127,58.287 156.817,57.897 154.237,56.897 152.987,56.317 151.788,55.647 
				150.647,54.867 149.598,54.007 			"/>
			<line style="fill:none;stroke:#000000;stroke-width:0.25;" x1="143.038" y1="46.747" x2="143.038" y2="44.287"/>
			<line style="fill:none;stroke:#000000;stroke-width:0.25;" x1="109.317" y1="48.677" x2="109.317" y2="44.287"/>
			<line style="fill:none;stroke:#000000;stroke-width:0.25;" x1="103.788" y1="46.617" x2="103.788" y2="44.287"/>
			<line style="fill:none;stroke:#000000;stroke-width:0.25;" x1="103.788" y1="50.757" x2="103.788" y2="54.007"/>
			<polyline style="fill:none;stroke:#000000;stroke-width:0.25;" points="142.567,50.617 141.757,54.007 141.177,56.397 			"/>
			<polyline style="fill:none;stroke:#000000;stroke-width:0.25;" points="141.177,56.397 125.067,58.437 124.518,58.507 			"/>
			<polyline style="fill:none;stroke:#000000;stroke-width:0.25;" points="141.768,54.007 141.757,54.007 123.127,55.977 			"/>
			<polyline style="fill:none;stroke:#000000;stroke-width:0.25;" points="101.657,50.707 102.598,52.617 103.817,54.397 
				105.237,56.007 106.877,57.397 108.647,58.587 110.598,59.507 112.627,60.177 114.737,60.587 116.877,60.697 119.018,60.557 
				121.127,60.117 123.147,59.397 125.067,58.447 			"/>
			<line style="fill:none;stroke:#000000;stroke-width:0.25;" x1="100.348" y1="44.287" x2="100.518" y2="46.677"/>
			<line style="fill:none;stroke:#000000;stroke-width:0.25;" x1="109.317" y1="48.677" x2="107.397" y2="54.007"/>
			<line style="fill:none;stroke:#000000;stroke-width:0.25;" x1="107.397" y1="54.007" x2="103.788" y2="54.007"/>
			<polyline style="fill:none;stroke:#000000;stroke-width:0.25;" points="123.127,55.977 121.127,56.117 119.127,56.177 
				117.127,56.117 115.127,56.007 113.127,55.757 111.177,55.367 109.268,54.787 107.397,54.007 			"/>
			<polyline style="fill:none;stroke:#000000;stroke-width:0.25;" points="124.518,58.507 121.788,58.787 119.067,58.927 
				116.317,58.927 114.987,58.817 113.627,58.587 112.317,58.287 110.987,57.897 108.397,56.897 107.147,56.317 105.958,55.647 
				104.848,54.867 103.788,54.007 			"/>
			<line style="fill:none;stroke:#000000;stroke-width:0.25;" x1="183.518" y1="76.367" x2="241.647" y2="76.367"/>
			<line style="fill:none;stroke:#000000;stroke-width:0.25;" x1="183.518" y1="76.367" x2="161.208" y2="60.647"/>
			<line style="fill:none;stroke:#000000;stroke-width:0.25;" x1="263.518" y1="69.287" x2="263.518" y2="44.287"/>
			<line style="fill:none;stroke:#000000;stroke-width:0.25;" x1="207.317" y1="54.007" x2="207.317" y2="44.287"/>
			<line style="fill:none;stroke:#000000;stroke-width:0.25;" x1="207.317" y1="54.007" x2="263.518" y2="69.287"/>
			<polyline style="fill:none;stroke:#000000;stroke-width:0.25;" points="241.647,76.367 272.107,86.957 272.177,86.977 			"/>
			<line style="fill:none;stroke:#000000;stroke-width:0.25;" x1="282.487" y1="54.177" x2="282.487" y2="44.287"/>
			<line style="fill:none;stroke:#000000;stroke-width:0.25;" x1="339.067" y1="74.367" x2="339.067" y2="63.057"/>
			<line style="fill:none;stroke:#000000;stroke-width:0.25;" x1="386.268" y1="68.477" x2="386.268" y2="44.287"/>
			<line style="fill:none;stroke:#000000;stroke-width:0.25;" x1="428.897" y1="53.927" x2="428.897" y2="44.287"/>
			<line style="fill:none;stroke:#000000;stroke-width:0.25;" x1="411.487" y1="69.287" x2="400.707" y2="72.817"/>
			<line style="fill:none;stroke:#000000;stroke-width:0.25;" x1="400.707" y1="72.817" x2="339.067" y2="74.367"/>
			<line style="fill:none;stroke:#000000;stroke-width:0.25;" x1="339.067" y1="63.057" x2="353.957" y2="54.177"/>
			<line style="fill:none;stroke:#000000;stroke-width:0.25;" x1="353.957" y1="54.177" x2="282.487" y2="54.177"/>
			<line style="fill:none;stroke:#000000;stroke-width:0.25;" x1="393.737" y1="68.477" x2="386.268" y2="68.477"/>
			<line style="fill:none;stroke:#000000;stroke-width:0.25;" x1="393.737" y1="68.477" x2="428.897" y2="53.927"/>
			<line style="fill:none;stroke:#000000;stroke-width:0.25;" x1="440.098" y1="69.287" x2="455.378" y2="60.647"/>
			<polyline style="fill:none;stroke:#000000;stroke-width:0.25;" points="5.127,44.287 5.377,44.867 5.768,45.367 6.708,46.257 
				7.768,46.927 8.848,47.537 13.348,49.757 17.927,51.757 22.598,53.647 27.288,55.427 32.018,57.117 36.768,58.757 41.538,60.317 
				46.348,61.757 51.147,63.177 60.848,65.727 70.627,68.007 80.427,70.057 90.268,71.947 100.147,73.757 110.018,75.477 
				119.927,77.117 129.817,78.677 139.768,80.057 149.708,81.317 159.647,82.397 169.647,83.287 179.647,84.037 189.647,84.647 
				199.677,85.177 219.708,85.947 239.768,86.507 259.817,86.867 272.107,86.957 279.877,87.007 299.897,86.897 319.957,86.587 
				360.048,85.897 380.098,85.647 400.147,85.227 410.178,84.897 420.178,84.477 430.178,83.947 440.207,83.317 450.178,82.557 
				460.178,81.727 470.178,80.787 480.147,79.757 490.128,78.647 500.098,77.427 510.067,76.087 519.987,74.617 529.907,73.007 
				539.768,71.257 549.628,69.337 559.428,67.257 569.178,64.977 578.897,62.537 588.567,59.867 598.178,57.037 607.758,54.037 
				617.287,50.897 626.768,47.647 636.237,44.287 			"/>
			<polyline style="fill:none;stroke:#1F1A17;stroke-width:0.25;" points="477.317,37.987 476.888,37.977 471.737,37.867 
				469.598,37.827 465.987,37.757 465.987,42.037 469.598,41.967 472.878,41.907 476.848,41.837 			"/>
			<polygon style="fill:none;stroke:#1F1A17;stroke-width:0.25;" points="477.317,37.987 476.848,39.897 476.848,41.837 
				479.567,41.787 479.567,41.147 502.567,40.617 502.567,39.197 479.567,38.647 479.567,38.037 			"/>
			<polyline style="fill:none;stroke:#1F1A17;stroke-width:0.25;" points="476.848,46.757 472.997,46.687 472.878,46.687 
				469.598,46.627 465.987,46.557 465.987,50.817 469.598,50.747 471.728,50.707 471.737,50.707 477.317,50.607 			"/>
			<polygon style="fill:none;stroke:#1F1A17;stroke-width:0.25;" points="476.848,46.757 476.848,46.767 476.848,48.677 
				477.317,50.597 477.317,50.607 479.567,50.557 479.567,49.927 502.567,49.397 502.567,47.977 479.567,47.427 479.567,46.817 			
				"/>
			<polygon style="fill:none;stroke:#1F1A17;stroke-width:0.25;" points="512.487,37.757 512.487,42.037 516.128,41.967 
				519.378,41.907 526.067,41.787 526.067,41.147 549.098,40.617 549.098,39.197 526.067,38.647 526.067,38.037 518.268,37.877 
				516.128,37.827 			"/>
			<polygon style="fill:none;stroke:#1F1A17;stroke-width:0.25;" points="526.067,46.817 519.378,46.687 516.128,46.627 
				512.487,46.557 512.487,50.817 516.128,50.747 518.258,50.707 518.268,50.707 526.067,50.557 526.067,49.927 549.098,49.397 
				549.098,47.977 526.067,47.427 			"/>
			<polyline style="fill:none;stroke:#1F1A17;stroke-width:0.25;" points="143.038,41.847 146.348,41.907 149.598,41.967 
				153.237,42.037 153.237,37.757 149.598,37.827 147.487,37.867 147.487,37.877 142.578,37.977 			"/>
			<polygon style="fill:none;stroke:#1F1A17;stroke-width:0.25;" points="143.038,39.897 142.578,37.977 139.647,38.037 
				139.647,38.647 116.627,39.197 116.627,40.617 139.647,41.147 139.647,41.787 143.038,41.847 			"/>
			<polyline style="fill:none;stroke:#1F1A17;stroke-width:0.25;" points="143.038,46.747 139.647,46.817 139.647,47.427 
				116.627,47.977 116.627,49.397 139.647,49.927 139.647,50.557 142.567,50.617 142.578,50.617 			"/>
			<polygon style="fill:none;stroke:#1F1A17;stroke-width:0.25;" points="143.038,46.747 143.038,46.757 143.038,48.677 
				142.578,50.617 147.487,50.707 149.598,50.747 153.237,50.817 153.237,46.557 149.598,46.627 146.348,46.687 146.217,46.687 			
				"/>
			<polygon style="fill:none;stroke:#1F1A17;stroke-width:0.25;" points="107.397,42.037 107.397,37.757 103.788,37.827 
				101.647,37.867 101.647,37.877 93.817,38.037 93.817,38.647 70.817,39.197 70.817,40.617 93.817,41.147 93.817,41.787 
				100.518,41.907 103.788,41.967 			"/>
			<polygon style="fill:none;stroke:#1F1A17;stroke-width:0.25;" points="107.397,46.557 103.788,46.627 100.518,46.687 
				93.817,46.817 93.817,47.427 70.817,47.977 70.817,49.397 93.817,49.927 93.817,50.557 101.647,50.707 101.657,50.707 
				103.788,50.747 107.397,50.817 			"/>
		</g>
	</g>
</g>
</svg>
